<?xml version="1.0" encoding="utf-8"?>
<!-- Generator: Adobe Illustrator 27.1.0, SVG Export Plug-In . SVG Version: 6.00 Build 0)  -->
<svg version="1.1" id="Layer_1" xmlns="http://www.w3.org/2000/svg" xmlns:xlink="http://www.w3.org/1999/xlink" x="0px" y="0px"
	 viewBox="0 0 1488.3 315.1" style="enable-background:new 0 0 1488.3 315.1;" xml:space="preserve">
<style type="text/css">
	.st0{fill:#64748B;}
</style>
<g id="Layer_2_00000097471960830833309500000013346998809690578582_">
	<path class="st0" d="M273.6,0.1l0.1-0.1c0.1,0,0.3,0.1,0.4,0.1c0.9,0.2,1.7,0.6,2.6,0.8c20.1,5.5,38.1,15.1,53.5,29.2
		c8.7,8,16.2,17.1,21.9,27.5c5.3,9.8,8.6,20.4,9.9,31.5c0.6,4.4,0.5,8.8,0.6,13.2c0,8.8-1.3,17.5-3.9,25.9
		c-4.1,13.1-10.9,24.5-20,34.7c-0.4,0.4-0.7,0.8-0.9,1.1c1.2,2.6,2.5,5,3.6,7.5s2.1,5.1,3,7.7c3.9,12,5.4,24.7,4.3,37.3
		c-0.6,8.2-2.4,16.3-5.2,24c-4.9,13.3-12.7,24.7-22.6,34.7c-15.5,15.6-33.8,26.4-54.7,32.7c-16.3,5-33.1,7.1-50.1,7.2
		c-71.3,0.1-216,0-216,0l135.3-108.6H16.8c0.3-0.3,0.7-0.7,1.1-0.9c28.5-22.9,87-69.9,87-69.9h109.2c6.7,0,13.3-0.1,19.9-0.6
		c5.5-0.4,11-1.2,16.4-2.4c5.6-1.3,10.8-3.4,15.3-7c4.1-3.3,7.4-7.2,9.4-12.2c1.1-2.8,1.9-5.8,2.1-8.8c0.4-5.4,0.1-10.7-1.9-15.8
		c-3.2-8.5-9.6-14-17.6-17.6c-4.5-2.1-9.5-2.9-14.4-3.7c-7.7-1.1-15.4-1.6-23.1-1.6c-8.9-0.1-17.8,0-26.7,0c-0.4,0-0.9,0-1.6-0.1
		c0.3-0.3,0.7-0.6,1.1-0.9l67.3-54C264.8,7.4,273.6,0.1,273.6,0.1z"/>
	<path class="st0" d="M506.4,310.4h-52l1.6-5.5c-3.3,2.1-6.8,3.8-10.4,5.2c-3.7,1.4-7.5,2.5-11.3,3.4c-4.5,1-9.1,1.6-13.8,1.6
		c-15.7,0-28-2.5-37-7.5c-9-5-15.5-11.4-19.4-19.3c-4-8-6-16.9-5.8-25.9c0.1-9.3,1.3-18.5,3.5-27.5c3.1-12.2,7.6-23.9,13.5-35
		c5.4-10.3,12.6-19.7,21.1-27.7c8.6-7.9,18.6-14.1,29.4-18.4c11.2-4.5,24.1-6.7,38.6-6.7c13.5,0,25.3,0.8,35.5,2.4
		c10.2,1.6,18.6,3.6,25.4,5.8c7.1,2.1,14,5,20.5,8.5L506.4,310.4z M413.7,233.7c-1.4,5-2.4,10-3.1,15.1c-0.7,4.6-0.4,9.3,0.6,13.9
		c1,4.3,3.2,8.1,6.4,11.2c3.2,3.2,8.2,5.5,14.7,6.9c4,1,8.1,1.1,12.1,0.3c3.6-0.7,7-1.9,10.2-3.7c3.5-1.7,6.8-3.8,9.8-6.4l22.3-83.2
		c-2.2-1.2-4.5-2.4-6.7-3.4c-2.4-1.1-4.8-1.9-7.4-2.6c-2.9-0.7-5.9-1.1-8.9-1.1c-8,0-14.7,1.7-20.3,5.2c-5.6,3.4-10.4,7.8-14.4,13
		c-4,5.2-7.2,11-9.7,17.1C417.2,221.8,415.3,227.7,413.7,233.7z"/>
	<path class="st0" d="M582.6,162.7c7.6-3.4,15.5-6,23.6-8c9.2-2.3,18.5-4.2,27.9-5.5c10.8-1.6,23.1-2.4,37-2.4c3.1,0,6.4,0.1,10,0.4
		c3.6,0.3,6.8,0.6,9.7,0.9c2.9,0.3,5.2,0.7,7,1.1c0.8,0.2,1.6,0.4,2.4,0.6l-9.5,36.1c-1.8-0.8-3.6-1.4-5.5-1.8
		c-2.7-0.7-5.4-1.2-8.1-1.6c-2.9-0.4-6-0.7-9.3-1.1c-3.3-0.3-6.2-0.4-8.8-0.4c-4.2,0-8.4,0.4-12.5,1.4c-3.4,0.8-6.7,1.8-10,2.9
		c-2.3,0.8-4.5,1.8-6.6,2.9c-1.6,0.9-2.4,1.5-2.4,1.7l-32.2,120.5h-51.7L582.6,162.7z"/>
	<path class="st0" d="M739,99.7c7.5-2.2,15.9-4.3,25.1-6.1c7.7-1.6,17-3.1,27.7-4.4c11.7-1.4,23.5-2,35.3-2
		c14.1,0,26.6,1.6,37.5,4.7s19.9,7.5,26.9,13.2c7,5.6,11.9,12.3,14.5,20.2c2.6,7.9,2.7,16.5,0.3,25.9c-2.5,9.3-7.6,17.6-14.7,24
		c-6.5,5.9-13.5,11.1-21.1,15.5c4.5,2.1,8.6,5.1,11.9,8.8c3.2,3.6,5.8,7.8,7.5,12.4c1.7,4.7,2.7,9.7,2.9,14.7
		c0.2,5.3-0.4,10.6-1.8,15.8c-3,11-8.4,21.2-15.6,30c-7.5,9.1-16.6,16.9-26.8,22.9c-11,6.5-22.9,11.4-35.3,14.5
		c-13.5,3.4-27.4,5.1-41.3,5c-13.5,0-25.7-0.4-36.6-1.2c-10.9-0.8-20.2-1.8-27.9-2.9c-7.7-1.1-15.6-2.6-23.7-4.4L739,99.7z
		 M836.3,242.3c2.2-8.4,2.1-14.5-0.4-18.4c-2.6-3.9-7-6.5-13.5-8s-14.5-2.1-24.2-1.8c-9.7,0.2-20.6,0.2-32.9,0l-15.6,57.8
		c2.2,0.4,4.9,0.8,8,1.2c2.9,0.5,5.9,0.8,8.8,0.9c3.5,0.2,7.2,0.3,11.3,0.3c6.7,0,13.5-0.7,20.1-2c6.1-1.2,11.9-3.2,17.5-6
		c5-2.5,9.5-5.9,13.3-10C832.3,252.4,834.9,247.5,836.3,242.3L836.3,242.3z M848.5,154.1c1.6-5.9,1.6-10.7-0.3-14.2
		c-1.8-3.5-4.6-6.4-8-8.4c-3.6-2.1-7.6-3.4-11.8-4c-4-0.6-8-0.9-12.1-0.9c-6.7-0.1-13.3,0.6-19.9,2c-5.7,1.3-8.7,2-8.8,2l-12.5,47.1
		c7.2,0,14.6,0.1,22.5,0.4c7.4,0.3,14.7-0.1,22-1.2c6.5-1,12.7-3.3,18.2-6.7C843.1,166.8,846.7,161.5,848.5,154.1L848.5,154.1z"/>
	<path class="st0" d="M961.4,244.1c-1,4.3-1.3,8.7-0.9,13c0.4,4.3,1.9,8.4,4.3,11.9c2.4,3.6,6,6.5,10.7,8.9
		c4.7,2.3,10.9,3.5,18.6,3.5c5.7-0.1,11.4-0.6,17-1.7c6.2-1.1,12.5-2.5,18.6-4.1c6.2-1.6,12.3-3.4,18.2-5.4s11.2-3.8,15.9-5.7
		l-18.4,41c-0.2,0.4-2.4,1.1-6.4,2.1s-9.3,2.1-15.6,3.2c-6.3,1.1-13.3,2.1-21.1,2.9c-7.5,0.8-15.1,1.2-22.6,1.2
		c-13.9,0-25.7-1.9-35.6-5.8c-9.9-3.9-17.8-9.4-23.6-16.7c-5.8-7.3-9.4-16.1-10.7-26.6c-1.3-10.5-0.2-22.4,3.2-35.6
		c3.7-13.6,9.2-25.7,16.5-36.1c7-10,15.6-18.9,25.4-26.2c9.5-7,20.2-12.4,31.5-15.9c11.2-3.5,22.9-5.3,34.6-5.4
		c11.2,0,21,1.7,29.4,5.2c8.4,3.4,15.1,8.3,20.3,14.4c5.2,6.2,9,13.4,11,21.3c2.1,8.4,2.7,17.2,1.7,25.9c-0.6,4.9-1.5,9.9-2.6,15
		c-1.2,5.3-2.9,10.6-5,15.6H961.4z M1034.5,212.3c0.8-4.1,1.1-8.3,0.9-12.5c-0.1-3.5-1-7-2.7-10.1c-1.7-3-4.3-5.3-7.5-6.7
		c-3.4-1.6-7.7-2.4-13-2.4c-10.8,0-19.5,2.9-26.2,8.5s-12,13.5-16.1,23.2H1034.5z"/>
	<path class="st0" d="M1122.1,163.9c11.2-3.5,21.4-6.3,30.6-8.4s19.6-4.1,31.2-5.8c11.8-1.8,23.8-2.6,35.8-2.6
		c10.8,0,19.6,1,26.5,2.9c6.9,1.9,12.2,4.6,16.2,8c3.7,3,6.6,6.9,8.3,11.3c1.6,4.2,2.3,8.7,2.3,13.2c0,4.6-0.4,9.1-1.4,13.6
		c-0.9,4.5-1.9,8.7-2.9,12.5l-27.2,101.9h-52l22.9-85.7c1.4-5.5,2.8-10.8,4.1-16.1c1.2-4.5,1.8-9.2,1.6-13.9c-0.2-3.9-2-7.5-4.9-10
		c-2.9-2.6-8-3.8-15.1-3.8c-3.7,0-7.5,0.4-11.2,1.1c-3.3,0.6-6.5,1.5-9.7,2.6c-3.2,1-6.2,2.2-9.2,3.7l-32.7,122.1h-51.7
		L1122.1,163.9z"/>
	<path class="st0" d="M1433.2,298.2c-8.1,3.5-16.5,6.4-25.1,8.5c-9.4,2.5-19,4.5-28.6,6c-12.2,1.8-24.6,2.6-36.9,2.3
		c-14.5,0-26.1-2.3-34.9-6.9c-8.8-4.6-15.3-10.7-19.4-18.4c-4.2-7.7-6.3-16.5-6.4-26.6c-0.1-10.1,1.4-20.8,4.4-32
		c2.7-10.7,6.7-21,11.8-30.7c5.2-10.1,11.9-19.2,20.1-27c8.2-8,18.1-14.4,29.7-19.3c11.6-4.9,25.3-7.4,41-7.4c4.4,0,8.7,0.3,13,1.1
		c3.3,0.6,6.5,1.4,9.7,2.6c2.8,0.9,5.6,2,8.3,3.4l16.5-61.5h52L1433.2,298.2z M1338,231.2c-1.6,5.4-2.8,10.8-3.5,16.4
		c-0.7,5-0.6,10.1,0.4,15c1,4.5,3.3,8.6,6.6,11.8c3.4,3.2,8.4,5.5,15.1,6.7c3.6,0.8,7.3,0.8,10.8,0c3.4-0.7,6.7-1.6,10-2.7
		c3.4-1.2,6.7-2.7,9.8-4.6l23.2-86c-2.2-1.2-4.5-2.4-6.7-3.4c-2.2-1.1-4.6-1.9-7-2.4c-2.7-0.6-5.5-1-8.3-1.2c-8.2,0-15.1,1.7-20.8,5
		c-5.6,3.3-10.5,7.6-14.5,12.7c-3.9,5-7.2,10.5-9.7,16.4C1341.3,220.2,1339.5,225.7,1338,231.2z"/>
</g>
</svg>
