<?xml version="1.0" encoding="utf-8"?>
<!-- Generator: Adobe Illustrator 27.1.0, SVG Export Plug-In . SVG Version: 6.00 Build 0)  -->
<svg version="1.1"
	 id="svg7987" xmlns:dc="http://purl.org/dc/elements/1.1/" xmlns:sodipodi="http://sodipodi.sourceforge.net/DTD/sodipodi-0.dtd" xmlns:cc="http://creativecommons.org/ns#" xmlns:rdf="http://www.w3.org/1999/02/22-rdf-syntax-ns#" xmlns:svg="http://www.w3.org/2000/svg" xmlns:inkscape="http://www.inkscape.org/namespaces/inkscape" sodipodi:docname="healthline.svg"
	 xmlns="http://www.w3.org/2000/svg" xmlns:xlink="http://www.w3.org/1999/xlink" x="0px" y="0px" viewBox="0 0 411.9 66.6"
	 style="enable-background:new 0 0 411.9 66.6;" xml:space="preserve">
<style type="text/css">
	.st0{fill-rule:evenodd;clip-rule:evenodd;fill:#64748B;}
</style>
<sodipodi:namedview  bordercolor="#666666" borderopacity="1.0" fit-margin-bottom="0" fit-margin-left="0" fit-margin-right="0" fit-margin-top="0" id="base" inkscape:current-layer="layer1" inkscape:cx="63.718743" inkscape:cy="10.195313" inkscape:document-units="mm" inkscape:pageopacity="0.0" inkscape:pageshadow="2" inkscape:window-height="744" inkscape:window-maximized="1" inkscape:window-width="1280" inkscape:window-x="-4" inkscape:window-y="-4" inkscape:zoom="7.0387452" pagecolor="#ffffff" showgrid="false" units="px">
	</sodipodi:namedview>
<g id="layer1" transform="translate(-75.367275,-185.18077)" inkscape:groupmode="layer" inkscape:label="Layer 1">
	<path id="path3986" inkscape:connector-curvature="0" class="st0" d="M129.8,249.7h-19.7v-31.3c0-3.3-2.4-5.4-5.1-5.4
		c-2.7,0-5.9,2.2-5.9,5.4v31.3H81.3v-49.8l-5.7-4c6.5-2.2,17.4-6.9,23.4-10.2v26.1c2.4-2.9,8.1-6.7,15.5-6.7
		c9.3,0,13.3,6.1,13.3,13.5v26.4C127.7,245.7,128.4,247.3,129.8,249.7z M332.8,249.7h-19.7v-31.3c0-3.3-2.4-5.4-5.1-5.4
		c-2.7,0-5.9,2.2-5.9,5.4v31.3h-17.7v-49.8l-5.7-4c6.5-2.2,17.4-6.9,23.4-10.2v26.1c2.4-2.9,8.1-6.7,15.5-6.7
		c9.3,0,13.3,6.1,13.3,13.5v26.4C330.8,245.7,331.4,247.3,332.8,249.7z M172.8,242.3v3.1c-3.9,3.4-8.3,6.2-17.6,6.2
		c-14.7,0-23.7-9.9-23.7-22c0-14.5,9.2-24.4,22.8-24.4c13.4,0,18.5,9.2,18.5,20.7h-24.5c1.1,13.3,8.5,19.4,15.3,19.4
		C166.8,245.3,170.5,244.2,172.8,242.3L172.8,242.3z M153.5,223.3c3.9,0,4.4-1.1,4.4-4.4c0-2.5-0.5-8.7-4.4-8.7
		c-3.9,0-4.4,6.2-4.4,8.7C149.1,222.2,149.6,223.3,153.5,223.3z M487.2,242.3v3.1c-3.9,3.4-8.3,6.2-17.6,6.2
		c-14.7,0-23.7-9.9-23.7-22c0-14.5,9.2-24.4,22.8-24.4c13.4,0,18.5,9.2,18.5,20.7h-24.5c1.1,13.3,8.5,19.4,15.3,19.4
		C481.3,245.3,485,244.2,487.2,242.3z M467.9,223.3c3.9,0,4.4-1.1,4.4-4.4c0-2.5-0.5-8.8-4.4-8.8c-3.9,0-4.4,6.2-4.4,8.8
		C463.6,222.2,464,223.3,467.9,223.3z M222.8,241.9l2,0.4c-0.9,3.6-3.5,9.2-11.9,9.2c-7,0-9-4.3-10.4-8.8c-1.2,4.2-6,8.8-15.1,8.8
		c-8.1,0-12.6-3.6-12.6-10.4c0-7.6,7.4-13.2,25.9-18.6v-8c0-4.1-2.2-5.6-4.6-5.6c-2.2,0-5.7,2.4-5.7,6.1c0,1.8,0.3,3.1,0.6,4.9
		c0,2.3-2.6,5.7-6.6,5.7c-4.4,0-6.5-3.2-6.5-6.9c0-6.1,5.6-13.5,20.4-13.5c15.3,0,20.2,8.1,20.2,15.8v20.6c0,1.3,0.5,2.5,1.9,2.5
		C221.3,244.1,222.1,243.4,222.8,241.9L222.8,241.9z M200.6,240.3v-15.3c-6.2,2.5-8.3,8.7-8.3,13.5c0,3.9,1.2,5.6,4.1,5.6
		C198.8,244.2,200.6,242.6,200.6,240.3z M248.1,249.7h-20.3v-49.8l-5.4-4c6.2-2.2,17.6-6.9,23.2-10.2v59.2
		C245.6,245.7,246.4,247.3,248.1,249.7z M359.5,249.7h-20.3v-49.8l-5.4-4c6.2-2.2,17.6-6.9,23.2-10.2v59.2
		C357,245.7,357.8,247.3,359.5,249.7L359.5,249.7z M278.6,244.5v3.1c-3,2.5-7.9,3.9-13.2,3.9c-8.7,0-11.8-6.5-11.8-12v-29.3h-4.2
		l22.2-19.4v16h7v3.4h-7V242c0,2.5,1.5,3.7,3.3,3.7C275.9,245.7,277.9,245.2,278.6,244.5L278.6,244.5z M376.4,204.5
		c-5,0-9.1-4.2-9.1-9.4c0-5.2,4-9.4,9.1-9.4c5,0,9,4.2,9,9.4C385.5,200.3,381.5,204.5,376.4,204.5z M388.3,249.7h-20.8v-31.4
		l-5.7-4.1c6.5-2.2,17.5-6.9,23.4-10.2v40.8C385.3,245.7,386.3,247.3,388.3,249.7L388.3,249.7z M444.7,249.7h-20.3v-31.4
		c0-3.3-2.3-5.4-5.1-5.4c-2.7,0-5.9,2.2-5.9,5.4v31.4h-17.7v-31.4l-5.7-4.1c6.5-2.2,17-6.9,22.9-10.2v8.6c2.9-3.9,8.6-7.8,15.9-7.8
		c9.3,0,13.3,6.2,13.3,13.5v26.5C442,245.7,442.9,247.3,444.7,249.7L444.7,249.7z"/>
</g>
</svg>
