<?xml version="1.0" encoding="utf-8"?>
<!-- Generator: Adobe Illustrator 27.1.0, SVG Export Plug-In . SVG Version: 6.00 Build 0)  -->
<svg version="1.1" id="layer" xmlns="http://www.w3.org/2000/svg" xmlns:xlink="http://www.w3.org/1999/xlink" x="0px" y="0px"
	 viewBox="0 0 600.1 121.4" style="enable-background:new 0 0 600.1 121.4;" xml:space="preserve">
<style type="text/css">
	.st0{fill:#64748B;}
</style>
<g id="Page-1">
	<g id="logo">
		<path id="mens-health-logo2017-_x28_1_x29_" class="st0" d="M204.8,20h5.3v15.5h6.7l6.1-24.6V1h-18.2L204.8,20L204.8,20z
			 M123.7,41.1c4,0,5.9,3.2,5.9,28.3h-13.1C117,44.3,119.1,41.1,123.7,41.1L123.7,41.1z M148,91.6h-8.5v2.9
			c0,12.3-3.5,18.2-10.7,18.2c-8.3,0-12.3-5.3-12.3-33.4v-2.1h32.6c0-32.8-7.2-45.7-25.4-45.7S93.8,50.2,93.8,79
			c0,28.6,11.2,44.1,30.4,44.1c16.6,0,23.8-9.3,23.8-29.1L148,91.6L148,91.6z M374.7,41.1c4,0,5.9,3.2,5.9,28.3h-12.3
			C368.8,44.3,370.2,41.1,374.7,41.1L374.7,41.1z M399,91.6h-8.5v2.9c0,12.3-3.5,18.2-10.7,18.2c-8.3,0-11.5-5.3-11.5-33.4v-2.1
			h31.8c0-32.8-7.2-45.7-25.4-45.7S344.8,50.2,344.8,79c0,28.6,11.2,44.1,30.4,44.1c16.6,0,23.8-9.3,23.8-29.1L399,91.6L399,91.6z
			 M517,123.1c12,0,17.1-7.5,17.1-18.2V91.6h-8v13.3c0,5.6-0.8,7.5-3.5,7.5c-2.4,0-3.2-1.6-3.2-6.7V41.6h14.7v-8.3h-14.4V8.5h-8.3
			l-12.3,25.9h-7.2v6.9h6.4v59.3C498.3,116.1,501,123.1,517,123.1L517,123.1z M455.1,55.3c0-16.6-7.5-23.5-23.5-23.5
			s-27,11.5-27,25.1v5.3H423V49.7c0-7.2,1.6-9.9,5.6-9.9s5.6,2.4,5.6,9.9v14.7c-24.3,8.3-31.8,14.4-31.8,35c0,16,6.4,23.8,17.4,23.8
			c9.3,0,13.6-6.4,16-10.4v8.8h23.8v-7.2h-4.5V55.3L455.1,55.3z M594.2,114.3V51c0-13.1-5.9-19.2-16.3-19.2
			c-12.5,0-17.6,9.3-17.6,9.3V0l-26.4,2.9v6.9h6.1v104.4h-4.3v7.2h29.4v-7.2h-4.3V58.9c0-9.6,2.7-13.6,7.5-13.6
			c3.5,0,4.8,2.1,4.8,7.5v61.4h-4.8v7.2h31.8v-7.2h-5.9V114.3z M434.2,71.8V99c0,8-1.6,11.2-6.1,11.2c-3.5,0-5.1-2.9-5.1-12.5
			C423,81.4,424.4,77.4,434.2,71.8L434.2,71.8z M340.7,114.3V8.3h6.1V1.4h-36.6v6.9h7.5V58h-23.5V8.3h7.7V1.4h-37.1v6.9h6.4v106
			h-6.4v7.2h37.1v-7.2h-7.7V66.2h23.5v48.1h-7.5v7.2h36.6v-7.2H340.7z M487.6,114.3V0l-27.5,2.9v6.9h6.7v104.4h-4.3v7.2H494v-7.2
			h-6.4V114.3z M263.6,97.7c0-28.3-30.4-30.2-30.4-48.9c0-6.4,3.2-9.6,8.3-9.6c7.7,0,11.7,7.7,12.3,24h6.9V36.5
			c0,0-7.7-4.8-19.5-4.8c-14.1,0-25.6,8-25.6,24.3c0,26.7,29.6,30.4,29.6,48.6c0,7.2-3.5,10.7-9.1,10.7c-8.5,0-12.8-7.5-13.3-25.9
			h-6.9v28.8c0,0,8.5,4.8,21.1,4.8C252.4,123.1,263.6,114.3,263.6,97.7L263.6,97.7z M89.8,114.3V8.3h5.6V1.4H64.1L48.6,69L32,1.4H0
			v6.9h6.7v106H0v7.2h24.6v-7.2h-7.7V39.8l19.5,81.7h11.2l19.2-82.2v75h-7.2v7.2h35.8v-7.2H89.8L89.8,114.3z M208,114.3V51
			c0-13.1-5.9-19.2-16-19.2c-12.5,0-17.6,9.3-17.6,9.3v-9.3l-26.7,2.9v7.2h6.1v72.4h-6.4v7.2h31.8v-7.2h-4.3V59
			c0-9.6,2.7-13.6,7.5-13.6c3.5,0,4.8,2.1,4.8,7.5v61.4h-4.8v7.2h29.9v-7.2H208z"/>
	</g>
</g>
</svg>
