<?xml version="1.0" encoding="utf-8"?>
<!-- Generator: Adobe Illustrator 27.1.0, SVG Export Plug-In . SVG Version: 6.00 Build 0)  -->
<svg version="1.1" id="layer" xmlns="http://www.w3.org/2000/svg" xmlns:xlink="http://www.w3.org/1999/xlink" x="0px" y="0px"
	 viewBox="0 0 599.9 85.8" style="enable-background:new 0 0 599.9 85.8;" xml:space="preserve">
<style type="text/css">
	.st0{fill:#64748B;}
</style>
<g id="Page-1">
	<g id="tc">
		<polygon id="Fill-1" class="st0" points="112.1,28.6 168.2,28.6 168.2,0 112.1,0 		"/>
		<polyline id="Fill-2" class="st0" points="0,0 0,28.6 28,28.6 28,85.8 56,85.8 56,28.6 84.1,28.6 84.1,0 0,0 		"/>
		<polyline id="Fill-3" class="st0" points="84.1,85.8 168.2,85.8 168.2,57.2 112.1,57.2 112.1,28.6 84.1,28.6 84.1,85.8 		"/>
		<polyline id="Fill-4" class="st0" points="239.7,21.6 198.5,21.6 198.5,33.5 212.3,33.5 212.3,70.8 225.9,70.8 225.9,33.5 
			239.7,33.5 239.7,21.6 		"/>
		<path id="Fill-5" class="st0" d="M255.2,33.1c-9.7,0-16.9,6.5-16.9,19.3c0,11.3,6.1,19.2,17.2,19.2c5.8,0,10.5-1.5,15-4.2
			l-4.8-8.1c-3.7,1.9-6.3,2.6-9.6,2.6c-3.4,0-5.8-1.8-6.3-5.9h21.7c0.1-0.6,0.1-1.4,0.1-2.5C271.7,39.8,265.4,33.1,255.2,33.1z
			 M250,48.1c0.4-3.7,2-5.6,4.9-5.6c3.7,0,5,1.9,5.6,5.6H250z"/>
		<path id="Fill-6" class="st0" d="M295.7,61.3c-3.4,0-5.2-3-5.2-8.9c0-5.8,1.6-9.1,4.9-9.1c2.7,0,3.9,1.5,5.7,4.8l8.7-6.6
			c-3.2-5.2-7.2-8.4-14.2-8.4c-11.8,0-17.6,7.8-17.6,19.1c0,12.4,6.5,19.3,17.3,19.3c6.5,0,10.5-2.5,14.8-8.8l-8-6.3
			C299.7,60,298.1,61.3,295.7,61.3"/>
		<path id="Fill-7" class="st0" d="M339.3,33.1c-4.4,0-7,1.5-9.3,3.2V19.6l-12.7,5.1v46.2H330V49.8c0-4.6,1.6-5.9,4.3-5.9
			c2.6,0,4.2,1.3,4.2,6v21h12.7V48.3C351.2,38.6,347.3,33.1,339.3,33.1"/>
		<path id="Fill-8" class="st0" d="M381.7,59.7c-5.9,0-8.3-6-8.3-13.5c0-7.8,2.5-13.5,8.2-13.5c4.5,0,6.2,2.9,7.9,7.5l12.4-4.9
			c-3.4-9.3-8.2-14.5-20.3-14.5c-13.2,0-22.5,9.6-22.5,25.4c0,14.6,7.8,25.4,22.4,25.4c11.7,0,17.2-6.3,20.5-12.7l-11.5-6.1
			C387.8,57.4,386,59.7,381.7,59.7"/>
		<path id="Fill-9" class="st0" d="M422.4,36.6v-2.7h-12.7v36.9h12.7V50.7c0-4.5,1.9-6,5-6c2.5,0,4.3,1.3,5.9,3.1l3-13.1
			c-1.5-0.9-3.3-1.6-6-1.6C427,33.1,424.5,34.5,422.4,36.6"/>
		<path id="Fill-10" class="st0" d="M463.4,55c0,4.6-1.6,5.9-4.2,5.9s-4.2-1.3-4.2-6v-21h-12.7v22.6c0,9.7,3.9,15.1,12,15.1
			c4.3,0,7-1.5,9.2-3.2v2.5h12.7V34h-12.7L463.4,55"/>
		<path id="Fill-11" class="st0" d="M507.3,33.1c-4.4,0-7,1.5-9.3,3.2v-2.5h-12.7v36.9H498V49.6c0-4.6,1.6-5.9,4.3-5.9
			c2.6,0,4.2,1.3,4.2,6v21h12.7V48.1C519.2,38.6,515.4,33.1,507.3,33.1"/>
		<path id="Fill-12" class="st0" d="M544.4,61.3c-3.4,0-5.2-3-5.2-8.9c0-5.8,1.6-9.1,4.8-9.1c2.7,0,3.9,1.5,5.7,4.8l8.7-6.6
			c-3.2-5.2-7.2-8.4-14.2-8.4c-11.8,0-17.6,7.8-17.6,19.1c0,12.4,6.5,19.3,17.3,19.3c6.5,0,10.5-2.5,14.8-8.8l-8-6.3
			C548.5,60,546.8,61.3,544.4,61.3"/>
		<path id="Fill-13" class="st0" d="M588,33.1c-4.4,0-7,1.5-9.3,3.2V19.6L566,24.7v46.2h12.7V49.8c0-4.6,1.6-5.9,4.3-5.9
			c2.6,0,4.2,1.3,4.2,6v21h12.7V48.3C600,38.6,596.1,33.1,588,33.1"/>
	</g>
</g>
</svg>
