<?xml version="1.0" encoding="UTF-8"?>
<svg id="Layer_1" data-name="Layer 1" xmlns="http://www.w3.org/2000/svg" viewBox="0 0 42.98 52.2">
  <path d="m9.22,46.22v-.29h-.14l.14-.14v-.65l-.79.79-.79-2.52-.36-.07.79,2.59-.94,1.51,1.87.36v.07h.07l.07-.07v.14l2.09.36-1.08,1.58.29.5,1.44-2.09.79,1.73-.65,1.87-.36.29H2.59l-1.44-.58-.5-1.37v-.86l-.14-1.8-.5-1.58v-4.18l.22-.14.65-2.38v-2.59l-.65-.58v-4.18l.94-1.44.72,2.23.36.58h1.37l.36-.58H1.87l1.58-1.87-.5-.07-.79.94-.29-1.08-.72-.14.36-.79-.07-.22h.22l.65-1.3-.14-.29-1.08,2.16-.94,1.44v-2.81l.14-.07v-2.23l-.07-.14v-.29l-.07-.14h.07v-2.38l2.81.79.29-1.01-2.16-.65.43-1.01-.29-2.23-.72-.14v-5.62l1.58.07,1.22,1.8.43-1.15-.36-.58.36-.14h.07l.29-.07.14-.43-1.66.58-1.58-.07v-7.99l-.22.14.29-2.02.94,1.08.58-.22-1.3-1.44,1.66-1.37-.14.43h.79l-.14-.22h.94l.07-.22.14.22h.22l.94.22.65-1.15-1.37-.29h9.72l.5.86h-1.73l.58,2.16-1.44-.29.29.65,1.01.22-.72,1.66-.22-.58-2.66-.14-.07,2.95h.79l.07-2.23.36.94,1.44.07.58-1.01-.14-.22.72-1.66.5-.14-.36-1.3h1.73l-.43-.86h3.74v-.07h1.37l-.94.14.07.14,1.3-.22h.29l-.43-.07,1.94-.36h1.58l.65-.5,1.94-.94-.79,1.8.29.07-.43.22-.58,1.37-.29,1.58,1.37-3.17.22.65h1.15l.79-.72h9.79l1.37.58.29.58,1.3.43-.79,1.15-1.3-1.44-.58-.36,1.51,2.45-2.59-.86,1.8,2.02-2.09,1.08-2.09-.5-.72-.14-.07.22,1.73.43-.07.07.43.07.07,1.15.14-.14v-.5l1.01-.58.07-.07v.07l1.01-.5.94.14v2.59l-1.08,2.16-.65,2.81.79-.65.36,2.66-1.37.58h-9.07l.79-1.08.5-2.81-.29.07-.36,2.09-.86,1.08h-5.47l-2.52-.5-1.58,1.8v1.37l-.72,1.94.86-.07,1.8.22.22.36h3.89l.07-.14.07.14h3.82l.86.43.58-.86,2.52.5,1.73-.22-1.87-2.02h4.1l1.37.58h-.79l.79,1.94.58,1.37v2.74l-.72-.29-1.3,1.44-1.8-.79,1.22-2.59,2.16.36-.86-2.09-1.3-.22-1.22,2.59-.79-1.01-.14.14.58.65-1.73.22-1.08.79.14,2.09,2.23-1.66.72,2.45.07.36v-.29l1.8.79.43,2.23,1.44,2.74.14-1.51-1.37-2.59-.43-2.23,1.87,1.08-.58-2.52.72.29v4.03l-.14,2.09-.07-.07v3.46l-.58,1.44-1.37.5h-9.58l.14-.22-.29-2.02.58-1.01,1.87-1.37,2.95,1.3,2.16-.43.5-2.66-.14-.79-.36,1.94-2.16.43-2.95-1.3,2.45-1.8-.22-2.3-2.16-1.08h-1.08l-.14.86h.72l2.38,1.15-4.32,3.17-.58,1.01v.07l.14.14.65-.07-.43.29.79.65-1.01.14.14.79-.65.07-.5,1.58,1.01.07h-2.74l-.43-1.51-.58-.07-1.37,1.58-.79-.94h-2.3l1.37-1.58-.72-.07-2.16,2.23-.36-1.37-2.09-.07-.79-2.74-1.51-1.15h-1.66l-.65-1.51-.43-.07-.5-.72-.65.14.29-.58-.43-.5.86-.14.94-1.66.65,1.37.36-.07-1.15-2.38-.07-.07-1.58,2.81-2.02.07-1.37-.72-.29.79,1.51.79,2.02-.07,1.3,1.66-1.15-.07,1.01,2.3h1.66l1.51,1.15-2.74.22.22,1.08,2.66-.22.79,2.74-1.3.14.5.14,2.95-.29h.58l.79-.79v.86h.72l.36,1.37-.14.14,1.51.5v1.3l-.86.36-1.44.79-.79.5v3.31l.36.22.86,1.58v2.74l-.58,1.37.36.5-1.3-.14-.43.21h-2.74l-1.08-.29,1.51.14.22-.14.36.07-1.44-1.95,1.94.07-1.08-.07-.79-1.73.22-.22-.29-.43-.14.14h-.14l-.5.5-2.74-.5,1.3-1.51-1.22-.07ZM.14,19.22l.43,3.24-.43,1.01v-4.25ZM.94,1.87l-.29.79-.29,2.02v-1.44l.58-1.37Zm1.66,47.59l-1.3.07,1.94-.07.36-.79-.36-.65-.65,1.44ZM2.09,1.87l1.37-.58-1.66,1.37.29-.79Zm.07,16.49v.22l.58.07v-.29h-.58Zm3.02,5.69l.07,2.16.22-.5-.14-2.52.07-.65-.94-.86-.43,1.37,1.15,1.01Zm-.22-11.16l-.5.22v.29l.65-.22.14-.14-.29-.14Zm2.09,27.94v.07l1.37.07,1.51.29-.07.5,1.44,1.73,1.22-.43.94-.65-.86-1.15.29-.07-1.15-.22,1.22-1.44-2.88.14.5-2.66-.07-.43-2.23-.65-.5,2.66-2.23.14-.36-2.3-.14,1.01-.22.14.36,2.23,1.94-.14h-.07.43l.29-.94,1.08.86,1.08-.07-1.22,1.44-1.37-1.08-.29.94Zm.07-34.99l-2.09.36.43,1.08.36-.07,1.3-1.37Zm-1.73,44.78l.79-.58-.14-.36-.86.58.22.36Zm1.94-31.75l-1.94.07-.07.14h1.8l.22-.22Zm-1.87,25.13l1.66-.65-.43-.07-1.08.43-.14.29Zm.36-34.99l2.66-.07-.07-1.01h-1.58l-1.01,1.08Zm2.74,12.38l-1.44,2.09,1.08-.22.36-1.8.07.07h1.01l-.22-.29h-.86l-2.16-.58v.14l2.16.58Zm-.58-6.34l1.22,1.73h.43l-1.37-1.87,2.59,1.15-.22-1.01-2.38-1.01-1.3.07.22,1.01.79-.07Zm.65,34.78l-.94,1.8.07.07,1.01-1.87.14-1.15-.07-.22-.22,1.37Zm-.65-24.05l2.16-1.01-1.22-1.15-.36.14v1.08l-.36.07-.22.86Zm1.15-7.06l-.22-.5-.79-.07.36,1.01.36.5,1.73-1.51-.29-.43-.29.22.29.36h-.58l-.58.43Zm1.15,3.17l.36-.58-.07-.07-.36.58.07.07Zm1.22-12.46l.72-.07-.14-.29h-.72l-.43.79-.58,2.74.14.58.43-2.16.72-1.37-.14-.22Zm2.23,9l.94-.14-.29,2.52.29.07-.14-.5h.14l.36-2.59-.94.14-1.15-1.01-.43.58.36.29-.58.07-.07.14-.14-.07-1.51.22,1.22,1.15-.36.58h.07l.07-.07.07.07.14-.07,1.08-1.51.43,1.87.36-.07-.07.72.07.07v-.29l.58.14-.5-2.3Zm-2.74,4.97l.58-1.15-1.01.22.43.94Zm.22-7.06l.43.36.94-.14-.36-.29-1.01.07Zm.79,3.74l.5.36.14-.07-.58-.43-.07.14Zm1.44,2.88l-.79-1.51-.14.14.94,1.94h2.59v-.07h-2.59l.22-2.45h-.07l-.14,1.94Zm.86-9.65l-1.37,2.81,1.22-.07,1.37-2.88,1.37-.29v-.14l-2.16.43,1.8-2.3.22.43,1.01-.22,1.37,2.88-.58-.22-.43.43.07,1.08,1.8-1.8,2.23-.5.79,2.09.29-.94-.36.07.58-.5.07-.14h.07l1.37-1.08.14,1.01h.79l-.29-1.66.29-.07.29-2.45,2.02-2.16h-.5l-1.08,1.37.22-1.58-1.66,1.73-.43,3.17-1.51,1.3-.43,1.01-.22-.72-.79-1.37-2.02.5.43-.94h-.29l-.86,1.87-1.37-2.88-1.3.29-1.37-1.94,1.08-1.94.22-2.45-.43.14-.14,1.66-.94,1.73.14.22-1.66.22-.43.72,1.58-.22,1.37,1.94-1.66,2.09.07.29Zm1.3,34.99l.07.58,1.01,1.22.5-.07-.36-1.73-1.15-2.38-1.58-.79,1.51,3.17Zm-.07-21.24l-.36.65.72-.22.14-.22-.5-.29-.72-1.01v.07l.72,1.01Zm-.58,12.53l.07.07,1.3.22.07-.07-1.44-.22Zm.94,10.58h.07l-.72-.07h-.22l.86.07Zm.22-29.38l.22.5.65.14.79-.07-.43-1.15-.58.07-1.51.72.22.07.65-.29Zm2.74,26.71l-.86-1.58.86.29v1.3Zm.43-21.31l.22.58.07.07.22-.29-.5-.86-.43.65.07.07.29.14.07-.36Zm2.66,7.2l.43.07.5-.58,1.01.14.07-.07.07-.07-1.73-2.59v.07l-.72-.36.07.43-.72.94,1.22,1.8-2.16-.29v-.43l-.43.43.94,1.01.43-.5.22.86.79-.86Zm-1.15-7.85l1.66-2.09.29.5,2.16.14-.58.72.07.14.72.29.07,1.15.43.79-.36-.14.07.5h.29v-.36l.29-1.58-.22-.36h.29l.14-.86,1.94.29,1.08-1.15.5-.79-.07-.07-1.22,1.37-1.94-.29-.79-1.73-.07.07.58,1.22-1.37.07-.29.5h-.58l-.07.07-.07-.07h-1.01l-.36-.58-2.66-.14,1.08,2.23-.43,1.94.36.29.07.07h.86l.36,1.44.72-1.15-1.08-.29-.86-2.16Zm-.94-18.65l2.66.58-2.66-.58Zm1.44,27.86v-.07.07Zm.72-32.54l1.37.29.07-.22-.79-.22-.65.14Zm2.09,28.8l2.16.29.07-.72-.72-.58-.65,1.01-.36-1.22h-.58l-1.94-.22.14.5,1.87.94Zm.94-23.83l.36-1.87,1.01.65,1.66-.14-1.08-3.24h-.07l.86,2.52-2.52.22-2.3.29-.43,1.87,2.52-.29Zm1.22,24.41h-.07.07Zm3.38-19.87l-.58-.07-1.15,1.51.79-.14.94-1.3Zm0-5.9l-.86,1.3h-.5l-.29,2.02,1.73-2.09,2.52.07.58-.65h-1.58l.07-.07h-.79l.86-1.3.65-.14.22-.43-2.38.43-.22.86Zm-1.37-2.52l1.51.36.14-.58-1.08-.29-.58.5Zm1.66,19.08l.14-.22-.22.22h.07Zm.58-13.03l1.08.14v-.36l.72-.22-1.22-.14-.58.58Zm3.1.43l.14,1.94.86-2.23-1.01.29.29-.65-1.37-.22-.22.65,1.3.22Zm1.66,18.65l-.72-2.45.79,1.01-.07,1.44Zm1.87-18.07l-.07-.79h-.22v.58l-.07.14.36.07Zm1.22,15.7l.58,2.52-1.87-1.08,1.3-1.44Zm.5-12.02l.65-2.81,1.08-2.16v4.25l-.94.07-.79.65Zm1.01-7.7l.79-1.15.14,1.3-.94-.14Zm3.1-4.68v1.37l-.14.07-1.51-2.45,1.66,1.01Z" fill="#fff"/>
</svg>