<?xml version="1.0" encoding="UTF-8"?>
<svg id="Layer_1" data-name="Layer 1" xmlns="http://www.w3.org/2000/svg" viewBox="0 0 461.66 54.07">
  <path d="m9.22,46.44v-.29h-.14l.14-.14v-.65l-.79.79-.79-2.52-.36-.07.79,2.59-.94,1.51,1.87.36v.07h.07l.07-.07v.14l2.09.36-1.08,1.58.29.5,1.44-2.09.79,1.73-.65,1.87-.36.29H2.59l-1.44-.58-.5-1.37v-.86l-.14-1.8-.5-1.58v-4.18l.22-.14.65-2.38v-2.59l-.65-.58v-4.18l.94-1.44.72,2.23.36.58h1.37l.36-.58H1.87l1.58-1.87-.5-.07-.79.94-.29-1.08-.72-.14.36-.79-.07-.22h.22l.65-1.3-.14-.29-1.08,2.16-.94,1.44v-2.81l.14-.07v-2.23l-.07-.14v-.29l-.07-.14h.07v-2.38l2.81.79.29-1.01-2.16-.65.43-1.01-.29-2.23-.72-.14v-5.62l1.58.07,1.22,1.8.43-1.15-.36-.58.36-.14h.07l.29-.07.14-.43-1.66.58-1.58-.07v-7.99l-.22.14.29-2.02.94,1.08.58-.22-1.3-1.44,1.66-1.37-.14.43h.79l-.14-.22h.94l.07-.22.14.22h.22l.94.22.65-1.15-1.37-.29h9.72l.5.86h-1.73l.58,2.16-1.44-.29.29.65,1.01.22-.72,1.66-.22-.58-2.66-.14-.07,2.95h.79l.07-2.23.36.94,1.44.07.58-1.01-.14-.22.72-1.66.5-.14-.36-1.3h1.73l-.43-.86h3.74v-.07h1.37l-.94.14.07.14,1.3-.22h.29l-.43-.07,1.94-.36h1.58l.65-.5,1.94-.94-.79,1.8.29.07-.43.22-.58,1.37-.29,1.58,1.37-3.17.22.65h1.15l.79-.72h9.79l1.37.58.29.58,1.3.43-.79,1.15-1.3-1.44-.58-.36,1.51,2.45-2.59-.86,1.8,2.02-2.09,1.08-2.09-.5-.72-.14-.07.22,1.73.43-.07.07.43.07.07,1.15.14-.14v-.5l1.01-.58.07-.07v.07l1.01-.5.94.14v2.59l-1.08,2.16-.65,2.81.79-.65.36,2.66-1.37.58h-9.07l.79-1.08.5-2.81-.29.07-.36,2.09-.86,1.08h-5.47l-2.52-.5-1.58,1.8v1.37l-.72,1.94.86-.07,1.8.22.22.36h3.89l.07-.14.07.14h3.82l.86.43.58-.86,2.52.5,1.73-.22-1.87-2.02h4.1l1.37.58h-.79l.79,1.94.58,1.37v2.74l-.72-.29-1.3,1.44-1.8-.79,1.22-2.59,2.16.36-.86-2.09-1.3-.22-1.22,2.59-.79-1.01-.14.14.58.65-1.73.22-1.08.79.14,2.09,2.23-1.66.72,2.45.07.36v-.29l1.8.79.43,2.23,1.44,2.74.14-1.51-1.37-2.59-.43-2.23,1.87,1.08-.58-2.52.72.29v4.03l-.14,2.09-.07-.07v3.46l-.58,1.44-1.37.5h-9.58l.14-.22-.29-2.02.58-1.01,1.87-1.37,2.95,1.3,2.16-.43.5-2.66-.14-.79-.36,1.94-2.16.43-2.95-1.3,2.45-1.8-.22-2.3-2.16-1.08h-1.08l-.14.86h.72l2.38,1.15-4.32,3.17-.58,1.01v.07l.14.14.65-.07-.43.29.79.65-1.01.14.14.79-.65.07-.5,1.58,1.01.07h-2.74l-.43-1.51-.58-.07-1.37,1.58-.79-.94h-2.3l1.37-1.58-.72-.07-2.16,2.23-.36-1.37-2.09-.07-.79-2.74-1.51-1.15h-1.66l-.65-1.51-.43-.07-.5-.72-.65.14.29-.58-.43-.5.86-.14.94-1.66.65,1.37.36-.07-1.15-2.38-.07-.07-1.58,2.81-2.02.07-1.37-.72-.29.79,1.51.79,2.02-.07,1.3,1.66-1.15-.07,1.01,2.3h1.66l1.51,1.15-2.74.22.22,1.08,2.66-.22.79,2.74-1.3.14.5.14,2.95-.29h.58l.79-.79v.86h.72l.36,1.37-.14.14,1.51.5v1.3l-.86.36-1.44.79-.79.5v3.31l.36.22.86,1.58v2.74l-.58,1.37.36.5-1.3-.14-.43.21h-2.74l-1.08-.29,1.51.14.22-.14.36.07-1.44-1.95,1.94.07-1.08-.07-.79-1.73.22-.22-.29-.43-.14.14h-.14l-.5.5-2.74-.5,1.3-1.51-1.22-.07ZM.14,19.44l.43,3.24-.43,1.01v-4.25ZM.94,2.09l-.29.79-.29,2.02v-1.44l.58-1.37Zm1.66,47.59l-1.3.07,1.94-.07.36-.79-.36-.65-.65,1.44ZM2.09,2.09l1.37-.58-1.66,1.37.29-.79Zm.07,16.49v.22l.58.07v-.29h-.58Zm3.02,5.69l.07,2.16.22-.5-.14-2.52.07-.65-.94-.86-.43,1.37,1.15,1.01Zm-.22-11.16l-.5.22v.29l.65-.22.14-.14-.29-.14Zm2.09,27.94v.07l1.37.07,1.51.29-.07.5,1.44,1.73,1.22-.43.94-.65-.86-1.15.29-.07-1.15-.22,1.22-1.44-2.88.14.5-2.66-.07-.43-2.23-.65-.5,2.66-2.23.14-.36-2.3-.14,1.01-.22.14.36,2.23,1.94-.14h-.07.43l.29-.94,1.08.86,1.08-.07-1.22,1.44-1.37-1.08-.29.94Zm.07-34.99l-2.09.36.43,1.08.36-.07,1.3-1.37Zm-1.73,44.78l.79-.58-.14-.36-.86.58.22.36Zm1.94-31.75l-1.94.07-.07.14h1.8l.22-.22Zm-1.87,25.13l1.66-.65-.43-.07-1.08.43-.14.29Zm.36-34.99l2.66-.07-.07-1.01h-1.58l-1.01,1.08Zm2.74,12.38l-1.44,2.09,1.08-.22.36-1.8.07.07h1.01l-.22-.29h-.86l-2.16-.58v.14l2.16.58Zm-.58-6.34l1.22,1.73h.43l-1.37-1.87,2.59,1.15-.22-1.01-2.38-1.01-1.3.07.22,1.01.79-.07Zm.65,34.78l-.94,1.8.07.07,1.01-1.87.14-1.15-.07-.22-.22,1.37Zm-.65-24.05l2.16-1.01-1.22-1.15-.36.14v1.08l-.36.07-.22.86Zm1.15-7.06l-.22-.5-.79-.07.36,1.01.36.5,1.73-1.51-.29-.43-.29.22.29.36h-.58l-.58.43Zm1.15,3.17l.36-.58-.07-.07-.36.58.07.07Zm1.22-12.46l.72-.07-.14-.29h-.72l-.43.79-.58,2.74.14.58.43-2.16.72-1.37-.14-.22Zm2.23,9l.94-.14-.29,2.52.29.07-.14-.5h.14l.36-2.59-.94.14-1.15-1.01-.43.58.36.29-.58.07-.07.14-.14-.07-1.51.22,1.22,1.15-.36.58h.07l.07-.07.07.07.14-.07,1.08-1.51.43,1.87.36-.07-.07.72.07.07v-.29l.58.14-.5-2.3Zm-2.74,4.97l.58-1.15-1.01.22.43.94Zm.22-7.06l.43.36.94-.14-.36-.29-1.01.07Zm.79,3.74l.5.36.14-.07-.58-.43-.07.14Zm1.44,2.88l-.79-1.51-.14.14.94,1.94h2.59v-.07h-2.59l.22-2.45h-.07l-.14,1.94Zm.86-9.65l-1.37,2.81,1.22-.07,1.37-2.88,1.37-.29v-.14l-2.16.43,1.8-2.3.22.43,1.01-.22,1.37,2.88-.58-.22-.43.43.07,1.08,1.8-1.8,2.23-.5.79,2.09.29-.94-.36.07.58-.5.07-.14h.07l1.37-1.08.14,1.01h.79l-.29-1.66.29-.07.29-2.45,2.02-2.16h-.5l-1.08,1.37.22-1.58-1.66,1.73-.43,3.17-1.51,1.3-.43,1.01-.22-.72-.79-1.37-2.02.5.43-.94h-.29l-.86,1.87-1.37-2.88-1.3.29-1.37-1.94,1.08-1.94.22-2.45-.43.14-.14,1.66-.94,1.73.14.22-1.66.22-.43.72,1.58-.22,1.37,1.94-1.66,2.09.07.29Zm1.3,34.99l.07.58,1.01,1.22.5-.07-.36-1.73-1.15-2.38-1.58-.79,1.51,3.17Zm-.07-21.24l-.36.65.72-.22.14-.22-.5-.29-.72-1.01v.07l.72,1.01Zm-.58,12.53l.07.07,1.3.22.07-.07-1.44-.22Zm.94,10.58h.07l-.72-.07h-.22l.86.07Zm.22-29.38l.22.5.65.14.79-.07-.43-1.15-.58.07-1.51.72.22.07.65-.29Zm2.74,26.71l-.86-1.58.86.29v1.3Zm.43-21.31l.22.58.07.07.22-.29-.5-.86-.43.65.07.07.29.14.07-.36Zm2.66,7.2l.43.07.5-.58,1.01.14.07-.07.07-.07-1.73-2.59v.07l-.72-.36.07.43-.72.94,1.22,1.8-2.16-.29v-.43l-.43.43.94,1.01.43-.5.22.86.79-.86Zm-1.15-7.85l1.66-2.09.29.5,2.16.14-.58.72.07.14.72.29.07,1.15.43.79-.36-.14.07.5h.29v-.36l.29-1.58-.22-.36h.29l.14-.86,1.94.29,1.08-1.15.5-.79-.07-.07-1.22,1.37-1.94-.29-.79-1.73-.07.07.58,1.22-1.37.07-.29.5h-.58l-.07.07-.07-.07h-1.01l-.36-.58-2.66-.14,1.08,2.23-.43,1.94.36.29.07.07h.86l.36,1.44.72-1.15-1.08-.29-.86-2.16Zm-.94-18.65l2.66.58-2.66-.58Zm1.44,27.86v-.07.07Zm.72-32.54l1.37.29.07-.22-.79-.22-.65.14Zm2.09,28.8l2.16.29.07-.72-.72-.58-.65,1.01-.36-1.22h-.58l-1.94-.22.14.5,1.87.94Zm.94-23.83l.36-1.87,1.01.65,1.66-.14-1.08-3.24h-.07l.86,2.52-2.52.22-2.3.29-.43,1.87,2.52-.29Zm1.22,24.41h-.07.07Zm3.38-19.87l-.58-.07-1.15,1.51.79-.14.94-1.3Zm0-5.9l-.86,1.3h-.5l-.29,2.02,1.73-2.09,2.52.07.58-.65h-1.58l.07-.07h-.79l.86-1.3.65-.14.22-.43-2.38.43-.22.86Zm-1.37-2.52l1.51.36.14-.58-1.08-.29-.58.5Zm1.66,19.08l.14-.22-.22.22h.07Zm.58-13.03l1.08.14v-.36l.72-.22-1.22-.14-.58.58Zm3.1.43l.14,1.94.86-2.23-1.01.29.29-.65-1.37-.22-.22.65,1.3.22Zm1.66,18.65l-.72-2.45.79,1.01-.07,1.44Zm1.87-18.07l-.07-.79h-.22v.58l-.07.14.36.07Zm1.22,15.7l.58,2.52-1.87-1.08,1.3-1.44Zm.5-12.02l.65-2.81,1.08-2.16v4.25l-.94.07-.79.65Zm1.01-7.7l.79-1.15.14,1.3-.94-.14Zm3.1-4.68v1.37l-.14.07-1.51-2.45,1.66,1.01Z" fill="#fff"/>
  <path d="m48.1,51.84l-.36-1.66-.29-.14.29.07-.22-1.08.58,1.22h.07l-.94-1.87-.29.07-.36.58v-5.62l.14-2.09-.5-.94-.14.22v-.5l-.22-.43h.22v-6.12h.22l.29-2.59v-1.66l.65-1.3v-5.76l.79.29-.07-.07-1.08-.36v-4.68l1.37,1.51,1.8-.58.22-.86,1.66-.07v-.36l.29.29h.36l.07.5.5.43-.29.72.22,1.44,1.22,2.09-2.02-.29.07.07,1.51.22.72,1.37.86,2.88,3.02.36.36-.43-.14-.43-2.81-.29-.58-1.87-.29-.07.22-.29-.22-.65.58.14.5-.72,1.66-2.16h.07l1.08-2.09,2.52.58.72,1.22.58-2.02,1.87.14.22-.29v.36l.65.07-.65.94v2.16l.43.72.22-.36v.65l.65.14-.65,1.22v1.08l.86-.5-.72,2.38-.14-.86v.22l-.72-.43.36-1.22-.07.22-.65-.07.36,1.58h-1.15l.43,1.37-1.44,2.16-1.01.14-.36.58.94-.07.07,1.66.43-.07-.07-1.73.58.58,1.44-2.16-.72-2.16h1.44l.72,3.31v1.37l-.58,1.44v1.58h-.22l-.07.43.79.07-.79,3.1-.43-1.01v1.08l.36.14,1.08,1.58-.72-.14-.07.43.07,1.8-1.44.14-.22-.43-.72,1.08-.36,1.22.86-1.22,1.44-.14v3.02l.43.14v1.37l-.07-.14.07,2.38h-.94l-.72,1.37h1.58l-.58,1.37-1.37.58h-7.13l-.65-.58-2.02.58-.5-.58-.86.58h-2.66l-.43-.29.29-1.3.79-3.02,2.52.5-.29-.43.58.07.36-1.15.86,1.01-.43.22.72.07-.36,1.08.79,1.08.94-.5-.5-.94-.86-1.01,1.94-1.15,1.51.86-.86,1.51h.29l.43-.72,2.59-.65,2.09.65-1.37,1.51h.07l1.37-1.51-.22-1.37-.36-.07.29-.22-1.15,1.01-.36-1.08-1.37.36-.79-2.59.22-.36h-.58l1.58-1.66-.5-.79-.29.29-1.15,1.73.79,2.59-1.51-.86-1.94,1.15-2.09-.22-2.38-.43-1.66,2.02h-.07l-.43,1.58-.22.94.36.29-.36-.14-.07.22-.14-.36h-.07l.86,1.8-.94-.29Zm-1.37-10.44l.22.94v-.65l-.22-.29Zm5.83-24.12l.58-1.94h.07l-.86-.86,1.44-.58-.36-.79-.65-.22-1.44.58-1.44-.22.14.72-1.3,1.51,2.38.36.22-.29,1.22,1.22-2.02.14-.29.36-2.02.65-1.37-1.51v-1.37l.5-1.58-.14.07-.07.36v-.36l-.29.07v-1.44l.43-2.16v-1.51l-.43-.5v-2.81l.58-2.81,1.37-.5h2.66l.29.07,2.09.29-2.38-.36h7.99l-.22.36-.58,3.24-1.66-.14-.07-.07-.22.22-.58,2.38-.72-.07.29.86-.36.14h1.08l-1.08,2.81-.86-2.52.86,2.59-.14,1.22.86.29.29-1.94.5-1.37-.43-.72.58-2.38,3.38.14,1.01,2.45,1.01,2.74.29,1.3-.79,2.45h.07l.72-2.3,1.22,1.44.29-.43-1.01-1.22-.29-1.3-1.01-2.74-1.01-2.45-3.38-.14,1.66-1.08.58-3.24h2.3l-.72-.36h2.66l1.44.58.5,1.37-.36.43.36,3.82v1.37l-.22.07.22,1.37v2.81l-.94.22.94,2.59-.5-.65v.29l.14.29h-.14v.72l-.29-.72-1.66-.14-.79,1.01-.58,2.02-.72-1.22,1.3-.79v-.07l-1.3.79v.07l-2.52-.58.94-1.8-.14-.22h-1.73,1.3l-.65,1.3.36-.07-.36.72.29.58-.72.14-.36.79-1.66,2.16-1.08,1.51-.72-1.37-.65-1.08h-.65l.29-.65-.22-.36h.36l.29-.79-1.22-1.22Zm-5.33,25.92l.65-1.87-.14-.07v-.21l-.72.86-.07.72.36,1.73,1.87-.14-.22-1.08-1.73.07Zm4.68-10.44l3.02.22,1.87-.72-.36-1.51-1.37.5-.14.94-.72-.72-2.59-.22-4.54-.5-.07.5.94,1.08,3.96.43Zm-3.46-5.9l-.43.86.36,1.44.65-.07-.58-2.23Zm-.14-4.25l.94-1.3h-.14l-.86,1.3h.07Zm1.08,17.57l1.37,1.44,1.66-1.87-.29-.29-2.88.72-.72-.07-.29.36.36.65.79-.94Zm-.14,4.18h-.07l-.94,1.01,2.09.14,1.73-2.16h-1.15l-.79.86-.5-.86-.36.86h.07l-.07.07v.07Zm-.58-2.3l.14.36v-.36h-.14Zm2.38-13.25l.43.14.43-2.23-.14-.29-1.15-1.8h1.15l-.07-.72.5.65h1.22l-.07-.72-2.52.07-1.08.86v.07l.36.43.5-.36v1.01l.43.5-.36.5v.5l-.22-.22-1.37,1.87.65-.14.94-1.22.29,1.08h.07Zm-1.66-18.14l.29,1.37.36-.5.36-.58v-.07l-1.01-.22Zm.65,12.24l-.5,1.58.14.22.5-1.8-.14-.29-.43-1.58v.14l.43,1.73Zm-.14,19.15h.5l.07-.07h-.65l.07.07Zm.36-32.76l1.08.22v-.07l-1.08-.22v.07Zm.65,25.92l.94,1.3.94-1.3-.94-.29-.65-.07-.29.36Zm0,2.59l.14.14,1.3-.29-.36-.58-1.08.72Zm3.46-31.1l-.65-1.87.14-.5-.22.07-.72,2.02-1.3-.14-.22.36,2.3.22-1.66,2.74h-.14v.07h.14l.14.29,1.22-.43,1.08-1.73h-.43l.72-.5.29-.5.07.22.72-.43-.29-.65-1.22.79Zm-2.66,43.27l.94.14.86-.86-.43-.65-1.37,1.37Zm1.15,3.24l2.02-.58.65.58h-2.66Zm1.3-38.45l-.14-.43-.29,1.01h1.37l.36-.58h-1.3Zm1.44,4.54l-1.37-1.51-.43.65.79.86h1.01Zm1.44,17.42l-.5-.72-1.15.79,1.15-.07h.72l.43-.58-.14-.36h-.14l-.36.94Zm.14-21.1h.5l-.36-.79-.58-.14-.07.14-.86-.07.22.86,1.37.29-.22-.29Zm2.95,12.74l.36,2.16h.58l-.07-.65-.43.07.36-.5-.29-1.37.72.65.07-.07-1.3-1.22-2.88,1.15-.65.72,3.1-1.22-.86,2.16.5.14.79-2.02Zm-3.02,4.68l.14.72.43-.65-.58-.07Zm.58-16.63l-.43.86h.07l.36-.79v-.07Zm-.07,35.64l1.15.29,1.08-2.16-.29-.29h-.5l-.86,1.73-.94-.29.36.72Zm.43-15.34l-.14-.22.07.22h.07Zm.65,2.59l.07-.07-.58-1.94-.07.07.58,1.94Zm.07-4.39l.72,2.38-.14.43,1.01,1.51,1.58-.22.36-1.37.43,1.01.65.14-.14-1.22-.86-.36v-.07l-2.81.14-.72-2.38.65-1.66,2.16,1.8h.65l.5-.14v-.07l.29-.07h-.22l2.02-2.45-.14-.14h-1.44v.14h1.37l-2.02,2.45-.07-.65-.58.14.5-1.22v-.72h.36v-.14h-.22v-.22l-1.22,2.81-2.02-1.73-.5.14.5.07-.65,1.66Zm2.74-12.96l-.22-.14-1.94-.14v.14l2.16.14Zm-1.44-6.34l1.58.22-.36-.94-1.08-.14-.14.86Zm1.51,29.09l.43-.43-.07-.22-.43.36.07.29Zm.22-1.01l-.14-.5-.07.43.22.07Zm.29-3.02l1.58.43-.07-.29-1.44-.36-.07.22Zm1.22-16.27l-.22-2.45-.65-.14.22,2.52.65.07Zm.79,13.18l.58.22.07-1.01-.94-1.94-.65-.07-.14.58,1.08,2.23Zm.94,8.93l-.58-.14.5.65.22-.58-.14-.22v.29Zm.94-11.59l.36,2.88-1.15.22.79-3.1Z" fill="#fff"/>
  <path d="m89.5,51.77l1.01-2.09-.29-.14-2.81.21,1.58,2.59h-2.88l-1.37-.58-.58-1.37v-5.76l.07-1.37h-.22l-.07,1.44v-10.01l2.74.36,1.73.79h2.59l-1.15,1.94-1.15,1.8h1.73l1.8-.58-.58,2.38,2.81.36,1.01-.72-.79,2.3-1.44.29-.58,2.3.65.29.58-2.38,2.16-.43.79-2.3,3.24.72-1.15,1.58-1.58,2.88.65,1.94,1.08.14,2.23-.36.22-.07v-2.38l-1.94,2.74-.58-1.66-1.08-.14,1.94-2.74v.29l.5-.86,1.15-1.58-3.24-.72.79-.86-1.37-1.3.94-.22-.58-.43-2.02,2.16-1.01.72-2.81-.36.58-2.38-1.8.58h-1.73l1.15-1.8,1.15-1.94h-2.59l-1.73-.79-2.74-.36v-11.95l1.66.22-1.01,1.73,2.09.72v-.14l.22-.29h-.07l-.14.36-.22-.5-.79-.29.36-.65-.43-.94v-.22l-.94-.14v-1.44l1.15-.5v-.14l-1.37.65.29-2.16,1.01.14-.07-3.24-.22.07.07,3.02-1.3-.14-2.95-.72h-7.99l-2.66-.58-.58-1.37v-2.52l1.15-.07,1.51,1.08-.07-.36-.79-.58-1.15-1.3v-2.09l-1.37-.43v-3.89l.5.36,1.8,1.44-.58,2.16,1.3.43.65-2.38-.65-.72-1.15-.94-.5-.36.58-2.66,1.37-.58h.72l-.07-.36h4.18l-.86.86-1.51,1.8.43.72,1.87-2.16.86-.86h11.95l.07-.07h.22l.36-.94.36.94h2.52l-.36-1.08,2.16.5-.5.58h7.92l1.66,1.44v.07l1.15-1.44.94.86.22-.29,1.44.14,2.09-.79h.14l.58-.22-.14.22h3.67l1.37.58-.29.22-1.08,1.66-.79-1.22-.79.86.22.29,1.66.14,1.08-1.66.29-.22.58,2.66v6.41l-.65-.43-.58-2.16.79-1.3-.65-.07-.72,1.15.58,2.16.65.43v3.89l-.58,1.37-1.37.58h-.79l-.07.22-.36-.22h-.07l-1.73-.86,1.22-3.24-1.3,3.38,2.16,1.08h-5.26l-.72-1.73h-3.24l-1.3,1.58.5,2.74.22.14v3.6l.43-.22v5.69l-1.15,1.15.72,1.94-1.15-.65-1.66.07-.14.43.14.07-.29.43-.5,1.51-.72-.29-.14.14,1.01,1.8-1.44,2.3.29-.07,1.01-1.66,1.51,2.02-1.51.36.65.5,1.73,1.66,1.51-2.45.5-1.37v10.08l-1.3.86-1.15.14v1.58l-.58,1.44-2.81.5h-6.48l-.29.5-.07-.5h-.07l-.65,1.37-.86-1.37h-.22l.14-.14-.07-.07h-1.15Zm-15.91-40.9l.07.22.65.36h.36l-1.08-.58Zm2.23-3.67l.22,2.02,2.09-2.09-.14-.14-2.16.22-.65-.07-.29.29v-.29l-.79-.07-.14.36,1.15,1.44.72-1.66Zm3.24,3.82l-.29,2.38h.22l.29-2.23-.72-1.8-.72,1.3.22.5,1.01-.14Zm-.29-2.16l-.07.07,1.3.36.07-.07-1.3-.36Zm2.23-2.09v.14l1.15.07v-.22l-.07-.07-1.37-.07.07-.94-.94-.72.43-.07.14-2.66-1.58,1.87-.07,1.22,1.44,1.3.14.29h.58l.07-.14Zm-1.58,9.14l.29.07.94-2.52h-.29l-.94,2.45Zm2.09-6.34l-.29-.07v.07l1.08.29-.14-2.81-.79,2.16.14.36Zm3.02-4.75l2.45.22v-.07l-2.02-.14-.65-2.52h-.43l.65,2.52Zm6.41,44.14v-1.37l-1.37.65-1.73-1.8.43-.14-.14-.07h-.29l-.36.58-.07-.5h-.14l-1.22-2.59-1.01,1.94,1.37,2.81,2.38-.07.36.22,1.44-.65v1.51l.22-.5.14,1.8.5-.07.14-.22v.07l.29-.58-.94-1.01Zm-3.74-41.04l-1.58.72-.07.94,2.02-.94.36.29.14-.36-.86-.65Zm-.5,35.5l1.37.22.07-.07-1.87-.29-.14.29.72.36-.14-.5Zm.58-21.38l.07.22,1.01.14v-.29l-.5-.07.43-.29-.07-.86-1.3.79v.36l-.43-.07-.14.14.86.07.07-.14Zm5.4,7.92l.29.94.5-.5,2.16-.5.72-1.08-.65.14-.79-2.45-1.73,1.8-1.08-1.15-.43-2.23-.22-.22.5-2.3.14.29.07-.22,1.51,2.16.29.07,2.02-.65.65-1.58h-1.15l-.79.72-.29-.79h-.29l-.22.07v-.07h-.5l.43-.36-1.15-1.87h1.37v-.07l-1.22-.29.07-1.22h-.07l-1.15.79v.29h-.43l-.07.07-.07-.07-1.08-.07.86-.58-.36-.94-1.01-.29-3.02.58h.14v.07l2.66-.5.72,1.87v-.07l.43,2.66-.5,2.3-.58,2.23.5,2.45.86.86.22-.5.43,1.58,1.3-1.37Zm-4.46-.58l-.29-.5-1.44,1.58,1.87-.07-.14-1.01Zm-.36-5.98l.5-1.01-.5.94v.07Zm.94-13.9v-.43l-.58.07.5.36-.65,1.8.86-.07.65-1.73,1.51-.22-.5-1.58v-.07h-.14v-1.37l-.79,1.15-.79-1.44h-.14v1.44l.14-.36.5.43.5-.07-.22.36,1.08,1.01-1.73.22-.22.5Zm-.72,22.46h.22l.14-.79-.07-.65-.29,1.44Zm.65-28.94l-.36.5.36,1.94.43-.14-.43-2.3Zm-.36,4.46v.65l.29-.58-.29-.07Zm.22,36.14h-.22l.22.07v-.07Zm.79,1.94l-.5-1.15-.22.43.07.43.58.58,1.01-.43-.22-.14,1.15-1.58h-.5l-1.37,1.87Zm-.65-39.6l.07-.14-.07-.14v.29Zm1.15,8.14h1.01l1.58.94,2.16.07,2.02,1.15-1.58,1.58,1.66-.22h.22l-.14.36.29,2.23h.07l.94-.14.29-.72-.29-1.51-.79.07,1.66-1.66,1.8-.14,1.3-1.94h-1.15l-.36-1.3-1.01-1.66,1.08.58.86-.22,1.66-2.23-.5-1.8.5-.29-.36-.86h-.07l-.58-.43.5,1.22-.86.5-2.23,2.95-1.51-.86,1.37,2.3-1.73,2.59-1.8.14-2.02-1.15-2.45-.07-1.15-.65-.36.79v.36Zm2.16,34.27h.5l.22-.65.65.72.29.07-.58-.43.65-.14-.29-.87-.07.07.29.65-1.15-.07h-.07l-1.15-.14.94-.58-.36-1.01-1.51-.58.58,1.8v-.14l1.01,2.66.29-.79-.22-.58Zm-1.08-25.99l-.43-2.66,1.66.07,1.15,2.59h-2.38Zm.29-16.99l-.22.07-.29.43.22.43.29-.94Zm.58,45.29l.5-.07v-.07l-.5.07v.07Zm.5-48.31l-.14.36.65,1.3.22-.07-.72-1.58Zm.86,49.18l-.07-.14v.07l.58.43.94-1.94-.86.22-.36.79h.07l-.07.07-.22.5Zm.14-33.05l.86.07v-.36l-.86.29Zm2.23,19.58l.43-3.24-2.23.86.94,1.3.36-.14-.07.5.58.72Zm-.86,11.66l.14-.43-.58-.43-.14.43.5.65.07-.22Zm2.3-46.94l-1.73-.36-.29.29.14.43h1.58l.29-.36Zm.29,31.1l1.87-.07-.14-.22h-.36l.14-.29-.29-.43.79-.07.36-.43-1.01.07,1.22-1.73.36.65.65-1.37-.5-1.37.43-.43-.22-.58-.86-.86-1.01.36-.5.79.5-.14-1.3,2.95-.43.86,1.51.58-1.22,1.73Zm1.01-11.09l.22.5.94-1.51.14-1.08-1.3,2.09Zm1.94-3.24l-.14.29.5.72,1.8.14-1.87-2.74.14-.14-.72-.22-1.3.14.79.22-.22.58.72,1.08.29-.07Zm3.74,16.99l-.07-.14-.43-.14-.79-1.44-.22-.29h.07l-.29-.5,2.02.29.79-1.44.43-3.02v7.13l-1.51-.5v.07Zm-.5-22.32h-.79l.22.72.58-.72Zm1.3-9.43l-1.87,1.44.29.07,1.66-1.3-.07-.22Zm-1.44-3.1h2.81l-1.15,1.44-1.66-1.44Zm4.03,10.22l1.08-2.38,1.37-.43-.43-.14-2.66.79,1.37-2.09.72-2.02,1.01,1.58.5-2.66,1.3,2.16.29-.14-.58,2.45h.07l.58-2.66,1.3,2.74.36-.5-.94-2.02-1.37-2.3h.86l.07-.07h-1.37l1.37-2.09-1.01.36-.86,1.3-.58,3.38-1.44-2.23-.72,2.02-1.22-1.37-.07.07-.14-.29-.43-.5.22-.29-.22-.86.94-.14.36-.43-1.87.29.58,1.87-.07,1.51.22.65-.29-.07-.29-.07-.43.22.5.14.36-.22h.14l.14-1.94,1.73,1.94.14.14h-.22l-1.3,1.94-.72-.29-.5,1.08.65,1.01-.5,2.3.43.07.29-1.01.72,1.22.65.14.65,1.66.22-1.15-.94-1.66.36-.36-.36-.65Zm1.22-9.36l-1.44-.14-1.15-1.08h1.44l1.15,1.22Zm-.86-2.3h2.81l-1.58,1.22-1.22-1.22Zm1.73,13.03l-.22.94,1.44,1.73-.07-1.3-.5-.65-.22.29-.14-.65-.29-.36Zm2.16-1.73l-.43.72.14.72.86-1.37-.22-.22-.94-.07.07.22h.5Zm-.14,2.38l1.66-.86-.07-.14-1.66.86.07.14Z" fill="#fff"/>
  <path d="m133.27,43.99l.29-.72-.86-1.51.07-.07h-.14l-.14-.29h.36l.36-1.08-.29-2.81,1.37-.14.14-.58.43,3.17,1.22-3.31.79-1.58-1.08-.22-.94,1.8-.94-.79.5-2.23-.14-.22.5-1.37.79-.65.79,1.37.14-.36h.43l1.94-1.3-2.88-.29-.07.07,2.38.22-1.94,1.3-.72-1.3-.43.29,1.51-4.32-.07-.36.43-1.22-.58-.86,1.87-.43.29-.72v-.07l-1.51.36,1.37-4.03,2.59.07-.72.72,1.51-.43-.79-.65-2.59-.07,2.88-8.14h.07l.58-1.73.43,1.51.43-.14-.58-2.3.94-2.74.94.07.36-1.08,1.22-1.73,3.46-.65-1.8,1.44,1.66-.86v-.07l-.94.5,1.01-.86.43-1.3,1.51.79,1.73-.07h.86l-.58-1.15h2.81l2.81.43-.79.72h.58l-.07.43-.86-.14-.86.79-1.37,1.15,1.22-2.09-.58-.07-1.66.07.58,1.22-.65-.14,1.08,1.37.07.72,1.3-1.08.07.07.29-.29-.22-.58-.07-.07-.07-.22,1.22.07.79-.65v-1.22l.07-.43h2.81l1.66.79.29,2.3-1.58-.36,1.22,1.87h-.14l.5.14.65.07.29-.22.07.29.79.14-.22-2.74.43.86-.14-1.3-1.66-.79h1.44l2.09.65.22,2.74-1.37-.22.5,1.01.86-.22-.43,1.3,1.15,3.38.43.43-.14.22.29.79,1.3.58-.29,1.22-.65-.72.86,2.59-1.37-1.94.22-.94-.43-.5-.5-.22-1.37,1.94h-.07l.22.43-1.22-.5h-.94l-1.22.07-.14.65,2.02-.22,2.02.07.29.5.86-1.22,1.37,1.94-.94.36-.72.14.14.22-.36-.14-1.01.29,1.3,1.51-1.22.07.29.07-.07,1.66-1.44-1.73h-.22l-2.52-.22.72-2.16-1.01.36-3.02-.58-.79,1.37,3.17.58.22,1.44.07-.14h.22l-.29-1.51,1.01-.36-.65,1.87,2.23.22.5,1.08h2.09l.07-.14.86-.07-.72,1.73-.86.65.72-.07,1.58-1.15.58.29.65-1.66-.86.07.07-1.66-1.01-1.94,2.52-.72.94-.36,1.94,5.4-.79-1.08-.22.72.22.36.94,2.74h-.07l1.87,5.4-.36,2.38.07.22.5.07h.5l1.44,4.1-1.22-.86.07.5.29.22.5,1.51h.65l.65,1.3,2.38,6.77-.5.58-.07-.14.79,2.23v.43l.86,2.74h.14l-1.58,1.58h-2.66l2.02-2.23h-.36l-1.8,2.02h-1.3l-.79-2.16h.14l.36-1.73-.07-.29h-.14l-.29,1.51-1.66,1.51-1.87.22-.58.79,2.45-.29,1.58-1.44.79,2.16-2.09-.5.14.07,2.02.5h-1.37l-.22-.14h-6.41l1.58-.43h-1.51l-1.8-.36-1.44-2.59-.29-1.44-.94-2.38-1.8-2.02,1.87-1.3.86-2.3-1.08-.65.58-2.3-.65-1.22-3.38-.94-1.87.79-.22.29,1.94-.86,3.38.94.65,1.22-.58,2.3-1.22,3.24-1.87,1.3,1.8,2.02-1.51.22h-5.4l-.22.21-1.44-.43h-.79l-2.02.43-1.66-1.58v-.22h-2.38l.58-1.3-.22-.43-.65,1.66-.58,1.58-1.15,2.88v.29l-1.08,1.37-2.52-.07-1.58-1.15-1.94-.58-.14.14,2.38.65,1.58,1.15,2.52.14-1.73.36h-13.32l-1.51-2.09,2.38-6.7-.58,2.81,1.37,1.73-2.16-.5,1.37,2.95.07-.21-.58-1.3.94.22.36-1.15.43.07-.22-.36.5-2.88.43-1.08-.5-.79h.65l.07.07-.22.72.79,1.51Zm.29-8.28l-.22.29.79.65-1.58.14.58-.86,1.15-3.31-.72,3.1Zm4.46,4.25l.07-.14-.94-.14.22.65.65-.36Zm6.84-9.36l.36-3.53.5.36,1.22-1.3-.07-.22-2.38.65.07-.14-1.87.36-.29-.07-.86,1.51-1.73-1.58h-.22l-.29,1.44-.72-1.94.43.07.29-1.3,1.58,1.37h.65l1.01-1.73-3.24.14-.94-.22-.72,1.58.58.79.58,1.51.14-.07-.14-.22h.58l1.87.14,1.3.22,2.52-.43-.29,2.81h.29l.65-.86-.86.65Zm-6.77,7.2l-.07.14.07.14h.22l-.22-.29Zm.14-16.85l.58,1.37.29.22v.07l.07-.14.07-.86-1.01-.65Zm1.15,11.45l-.07,2.88.43.07.07-2.95h-.43Zm.29,9h2.02-.07l.86-1.94-.22-.07-.86,2.02h-1.87.14Zm.5,2.81h-.14l.14.21h.14l.22-.43.07-.07-.14-.14-.29.43Zm1.51,2.23l1.8.43-.43-2.38-.94-.22.29.79-1.3.07.58,1.3Zm.58-11.38l-1.08,1.94,1.08-1.94Zm-.29,7.34l-.29-.86-.5.86h.79Zm.29-29.16l2.16-.94.22-.43v.36l.22-.07-.14.36.07.79.94.94-.86,1.94-.07-.72-.5,1.8.79,1.01.58-2.09,1.94-.07.36-.65-.65-.58-1.51-1.87-1.15-1.15-2.59,1.08,1.15,2.16.07-.07-1.01-1.8Zm3.89,6.84v.07l-.65-.72h.22l-.43-.58-2.16.36-.58.79,1.51.14.22.22,1.8-.22.07-.07Zm-.14,15.12l.65,1.22.22-.94.65,1.3,1.58.07.79-1.66-1.58.07.29-.43-1.73-.07-.86-1.51-.79-1.44-.72,1.01.5.86,1.01.07-.36,1.08.22.36h-.36l-.07.29-1.15-.07-1.37,1.3.58,2.88-.5-2.88,2.45.22.58-1.73Zm-2.23,6.55h.07l.29-.29-.36-.14v.43Zm2.66-31.82l1.22-1.73-1.3-.29-.58.79-1.73-.07.22.43,1.73.07-.72,1.51.79.07.14-.29-.07-.07.22-.29.07-.14Zm-1.94,15.19l.86-.22.58-1.22.14.29.43-.14-.86-1.01-1.15,2.3Zm.22,6.12l.07-.07v-.07l-.07.14Zm0,.29l.22-.14h-.22v.14Zm.43-15.41l.86-1.94,1.51,1.87-2.38.07Zm2.23,24.19l.72,1.58,1.87-.72.14-.22-.07-.58,1.3,1.44.58.29,1.58-.22-1.37,2.23,2.59.22,1.73-2.09,2.16-.5,1.08,2.23h.14l-1.22-2.45-2.02.5v.07h-.14l-1.73,2.02-1.08-2.23-1.37-.14,1.22-2.02-1.44.22-2.02-2.23.22,1.3-1.01-.58-.29.5,1.3.72-2.59,1.01-1.22-1.87-.22,1.01h-.22l-.36.72.43-.07.29-.65.43.58.58-.07Zm-1.58,10.3v-.29l1.15-2.88-1.15,3.17Zm1.22-29.59l-.72-.79,1.37,1.44-.07-.5-.58-.86v.72Zm-.07-1.44v.22l.29-.36-.72-.07-.07.14.5.07Zm-.29,9.79l.07-.14-.14-.14-.07.07.07.22h.07Zm.14-.43v.07l.07-1.3-.07,1.3v-.07Zm.14-4.46l-.07-.65.07.65Zm-.07,3.1h.07l.07-1.37-.14,1.37Zm3.46-7.78l-1.58,2.02.07.07,1.51-1.87.65,1.73h.07l-.72-1.94-.22-.36-3.17.43v.36l3.38-.43Zm-3.31,6.05l-.07-1.3.07,1.3v.29l1.58.72h.07l-.14-.22-1.51-.79Zm1.73,3.6l-.79-.72-1.01.43.5.43,1.3.36-.43.43.36.29h.14l.14-.58-.22-.29h.29l.36-1.66-.36.14-.29,1.15Zm-.36,1.22l-.29-.07-.07.07h.36Zm1.66-17.57l-.14-.72-1.66.5,1.37,1.58-.14.58.29.65,2.09.07,2.45.43,1.44.14h.29l.22-.58-.14-1.66-.94,1.8-2.45-.43-2.23-.07-1.37-1.58,1.58-.43-.22-.07,1.01-2.09,1.58-1.51,1.22,1.73-1.15,2.23.72.22.79-1.58-.36-.72.65.07.22-.36.22.43.86.07,1.73.22h.22l.07-.22-1.8-.22-1.22-1.73.65-.36-.58-1.22,1.58.65.14-.07.07.22.14.07.43-2.3.86,1.08.29-.65.5.94.43-.22-.22.5.22.36,1.15-.65,1.37-.65h-.14l.86-.72-.65-.94-1.44.65-.65-.22-1.37.79-1.22-1.44-.14.58.14.36-.22.07-.43,2.02-.94-1.58-.58.14v-.22l-.65,1.58-.22-.43-1.58.86-1.58,1.51-1.37-.29.14.58.79.14-.58,1.22-.43.86Zm-1.73,20.3l1.37-.14.43-.58.07.58h.22l-.29-1.73-.29-.36-.43.65.72.86-1.22-.07-.58.79Zm.58-32.98h2.81l-2.09.07-.72-.07Zm2.38,5.26l.43,1.3-.79-2.52-1.51.07-.43,1.22,2.3-.07Zm-.29,12.82l-.58-1.22-.72-.29-.5.65.14.22,1.66.65Zm5.11,16.42h1.15l-.07-.14-.43-.07.43-.43-.29-1.8-.65-.43,2.66-1.8v-.07l-1.22-3.96.72.14-.07-2.59,3.31.79,2.09-.79-1.15,2.3,1.3-.22-1.3,2.38,1.51-.29,1.22-2.23.94.14-.65-2.02-.43-.14.5,1.51-2.16.36,1.08-2.16h-.07l.29-.86,1.01-.07-.22-.5-2.23.14-.29.86-1.73-2.16.72-1.3h-1.01l-.58,1.01,1.73,2.16-2.09.79-2.45-.58v3.24l-1.58-5.26-.07-.07-.79-.72.43-.29-.72-1.66h-.07l-.43,1.66-.36.07-.72,1.37-2.09-.07-.22.58v.07l2.3.14.22,1.58h.07l-.07.07.07.22-.29.07-1.01,1.73-.79-.86h-.07l.86,1.01-2.3.72-.65-2.38.65,2.45.22.14,2.09-.65.07,1.94-1.01.22h-.07l-.29,1.8,2.88.58h1.37l.94.5-1.15,2.66-2.23-.36-2.02.5.43.94,1.51-.43.07-.07,1.44,3.02.22.07.22-.94-.94-1.87,2.23.36v.07l.14.07-.07-.22Zm-5.76,11.59l-.29-1.58,1.73,1.58h-1.44Zm.22-39.02l.22.43.36-.07-.07-.07-.5-.29Zm1.87,20.45l-.07-2.02,1.3-2.02-1.22,4.03Zm.94,9.36l.58.07-.72-.29.14.22Zm.22-31.39l.43.65,1.51.5-.07-.58-1.87-.58Zm.94,33.55l-.72-.07-.07.22.43.86.36-1.01Zm-.07-1.8l-.07.22.07-.22Zm2.16-2.81l-1.51-.14,1.15-2.66.36,2.81Zm-.5,2.38l.5,1.66,3.02,1.3-.36-.94-2.38-1.01,1.22-1.15-2.02.07v.07Zm1.15-32.04l.36.07-.36-.79-.43-.07.5,1.22.22-.07-.29-.36Zm.72,11.23l-.94-1.73-.14.43.65,1.3h.43Zm-.5,18.43h.36-.36Zm1.22.72l.07-.07-.22-.5h-.22l-.43.43.79.14Zm-.43-3.17l-.14.72.14-.72Zm.14-20.95h-.14l.07.22.94-2.3-.07-.07-.79,2.16Zm.29,22.1v.07l1.3.07.14-.22-1.8-.14.36.22Zm1.01-20.59l.07,2.09.65-1.15-.07-1.3h-.43l-.22.36Zm1.15-3.74l2.88.72-.36-2.09-.72-.14-1.8,1.51Zm4.97,18.58l-1.44.22-.29,2.59,2.23-.07.07-.07h-.86l.29-2.66Zm1.51,13.97l.5-1.01-.36-.58.22-2.59-.72-.79,1.58-1.66-.14-.22,1.37-2.09,1.01,2.95.72,1.3.07.07,1.94.29-.36,1.73v-.07h-1.73v.07h2.23l.36-1.73-2.02-.29.43-1.37-.43,1.37-.72-1.3.72-.14-.94-2.81,2.3-.36-1.73-2.09v.22l-1.01-.29v-.07l-.43.22,1.44,1.73-2.3.36-3.17.58-1.94.07v.07l2.02-.07,3.17-.58-1.37,2.09-1.73,1.8-.22,2.3,1.37.79-.5,1.01.36.5-.86.65.72.86.5-.36-.36-.58Zm-2.3-33.41l.5.43,1.08.14.36-1.01-1.94.43Zm1.08,3.17h.07l-.5-1.01-.58.72,1.15.5-.07-.14-.07-.07Zm0,4.18l.58.65.22-.29-.79-.36Zm1.8,14.69h-.58l.14.72,1.44-.58-.36-2.3-.65,2.16Zm.58,11.38h.07l-.14-.14.07.14Zm1.22-.5l.29-1.58-1.15,2.16,1.01,1.51-.14-2.09Zm-.29-2.59l.58.65.14-1.01-.5-1.22-.22,1.58Zm2.74-9.72l-.65.58.14.86,1.08.36-.22-1.8-1.22-2.38-.43.5.58,1.15-1.01-.36.29.65.72.22.72.22Zm-1.37-5.18l1.15.07-.58-1.01-.58.94Zm.79,2.3l-.22.29,1.8-.43-1.01-1.44-.29.79.22.29-.36.07-.14.43Zm.94,17.78l-.29.58v.07l.43-.79-.94-.22.07.22.72.14Zm-.5,5.98v-2.38l-.07.14v2.66l1.08-.43.36-.5-1.37.5Zm.86-25.85l-.43.07-.14.07,1.66-.36v-.36l-1.08.43v.14Zm0,21.6l-.07.14.65-.14.36,2.66v-.43h.14l-.29-2.59-.94.22.14.14Zm2.16-10.58l-1.51.29-.07.07,1.87-.36-.22-1.3-.22.29.14,1.01Zm-.5,8.64l.79.07.79-2.45.79-1.44-1.08.07-.72,1.37-.22.65.07.36-.43.65-.14.43.14.29Zm1.94-10.66h-.72v.07l1.22-.07-1.01-1.01-.07.43.58.58Zm1.44,13.25l-1.58-.07.07.43h1.44l.22-.65-1.22-1.73-.43-.07,1.51,2.09Zm-.43-9.5h-.36v.14h.43l-.07-.14Zm2.02,6.84l-.22.72.86,1.15.36-.43-1.01-1.44Z" fill="#fff"/>
  <path d="m185.76,46.22v-2.81l.5,2.23-.5.58Zm.65-.5v-1.44l.14-.14-.14-.5h1.73l-.14-.22h-1.44l.14-1.73-.07-.14h.07l.07-.22.07.14h.29v-.86l.07.22.72-.22-.07-.29,1.22-.58,1.37-.07-.22-.22-1.01.07-1.22.58-1.44.5v-1.15l-.14,1.37v-1.37l.14-.43v-1.22l1.94-.36-2.09.36v-16.34l.07-.5.22-.86v-.65l.07.5.43-1.87,1.87,3.24,1.87-.58.29-.58-1.94.58-1.87-3.24,2.66.86-1.3-2.52.58-1.8,2.38-.22-.79-2.16h-.22l.79,2.02-2.38.22-.58,1.8,1.3,2.52-2.66-.86-.22.22-.72,2.81-.07-2.3.22-.22V6.77l.65.65.86-.79-.29-1.08.5.07-.14-.14v-1.44l.58-2.74,1.37-.58h8.28l.58.58.22-.43.43,1.8h1.3l.36.07h6.05l.14.72h.22l-.29-.58-.22-.86h2.81l1.73.07.36.07h.07l2.09.65-2.23-.36-1.66.29-.07,1.51-.36.14,1.3,2.66-.22.07.43.94.29-.07.07-1.08.29-.07-.86-1.66.07-1.51,2.16-.36,2.09.29-.29-.72h-.72l-2.09-.65,2.88.36,1.3.29h1.01l-.07.14.43.14.14-.43,2.74.94,1.3.58,2.52,1.37,1.22.86,1.08.86,1.08,1.01v.07l1.8,2.23.79,1.22-1.22-.43-1.44.36.07-2.38v-.07l-.07,2.3-1.15,1.73-1.58,1.22-.79-.86-1.58-.94v.07l-1.08-1.15v.07l1.08,1.15-2.52.14-2.66.72.29-.72-1.58-.58.72,1.58.58.22v.07l2.66-.72,2.52-.14,1.58.94.79.86,1.58-1.22,1.15-1.73,1.44-.36,1.22.5.14.36.22.43h.14l-.07.14.79,1.73.29,1.01h.07l-.36-1.3.5,1.37h-.14v-.07l-.07.07.07.22v.07-.07h.14l.29,1.01.07-.29.5,2.81-1.08-.94-.07.29h-.07l-.5,2.23.14-.07.43-1.94,1.15,1.01.07,1.44h-.43l.5,2.45-1.66-.43-.5,2.66-2.23-.07-.65-.14-.22.5-.29-.58-1.15-.14v.07l-.94-.07-.36,1.15-1.22-1.3-.43-.07v-.43l-.72-.65.65.07v-.72l3.96-1.01v-.07l.22-.5-1.58.36-1.8-1.8.65-.72-.43-1.08-.58-.14-1.44,1.15-.94-1.44-.36-1.44h-.14l-.14.14.22,1.01.94,1.44-.5,1.66-3.24.58-.72-2.59-.22.72-.58-1.58-.29.29.14.14-.14.07.5,1.01.22-.14.79,2.74.72.79,2.66-.5.22-.65,1.44,2.66.07,1.73-.5,2.02-1.8.58,2.23-.72.5-2.02,2.16,2.23.36-.36-.14-.65h.29l.43-1.51,1.01,1.87.29.07.36-.29.5-1.3,2.23.07.5-2.66,1.66.5.07,1.51-.07,2.09v2.45l-.21,3.24-.22.58-.21,2.3-.79,2.74h.07l-.58,1.37-1.87.07.86-2.38,1.51.94-.07-.43-1.29-.72-.14.22-.14-1.01h-.07l.14,1.15-1.01,1.01.79-2.52.07.29v-.43h.14l.79-1.58.29,1.44.07-.14-.36-1.8,1.44-1.66-.22-.43-1.22,1.44v-.07l-1.01,2.02-.65,1.87-2.3.07,2.02-1.37-.79-.14-1.01,1.22.21-1.37-.94,2.38,2.66.65-1.37.86.57.72h.94l1.87-.07-1.37,2.45-.87,1.22-2.02,2.02-1.08.94-1.22-1.73v.14l1.22,1.73-1.22.86v-1.01l-2.88.07.14-.79-.14-.07h.22l.5-2.45,2.16.65v-.58l-2.09-.65-.86.86-.43-.65-.29.72.58-.14-.43,1.94.65,1.37,1.66.65-2.66,1.15-1.37.43-1.37.43-2.81.5-1.44.22-1.44.14-1.66-.22.22.29-.79-.07.14.36,1.87.14h-8.5l.43-.65h-1.51l-.29.5.36.14h-4.46l.72.65h-2.52l.14-.65h-1.44l1.51-.21.29-1.01.43.36-.86-1.3,1.3-.07,1.22-1.15-.43-.72.14-.65-.65-.72-1.15,1.01-1.37.07-.29.72,1.15,1.8-2.38.36h-1.01l-.07.07-.22-.07h-2.09l-1.15,1.01-.94-1.01h-.14l-.29-.29-.72-.14v-.58l-.94-.94.94.21v-1.01l-.36-1.01.86-1.29v-.07l-.94.07-.29-1.15-.22,1.01Zm.29-21.02l-.14.36-.14,1.44.07-.14.22-1.66Zm1.22.79l-.5.43,1.3.07-.79-.5Zm2.38,22.32l-.43-1.01-1.51,2.45.29.79.22.14,1.44-2.38Zm-.72-42.55l-.58.58,1.08.22-.65-1.3.14.5Zm-.14,18.14l.5,1.08.14-.65-.36-.94-.29.5Zm1.44,4.9l3.24.58,1.87-.65h.65l1.08-1.8-.14,1.8h.86l-.07.07.72.14-.07-1.8-1.3-.22h-.43l-.94,1.8-1.08-1.8-.07-.14.5-1.44-.14-.14-1.15.14-.29.65,1.15,1.94-1.87.65-3.24-.58-.36-1.51-.07.36.43,1.94-.72,2.45,1.94.22,1.37,1.94.58-.14-1.22-1.8-1.94-.22.72-2.45Zm-.36-17.28l.14.43.14-.14-.07-.14h.14l.29-.36-.14-.79-.58.72.07.29Zm1.15-6.77l-.86-.14,1.44,1.8,1.22-1.66v-.58l-1.8-2.38-1.08.72,1.08,2.23Zm-.86,37.01l1.3.43-1.15-1.37-.14.94Zm.86,5.26l1.22-.86h-.07l-1.22.86h.07Zm.72-23.83l-.22.22.07,1.22,1.01-.07-.07-1.37.79-.43-.14-.43-1.44.86Zm0,19.08l.72-.14.22-.43-.36-.14.29-1.66.5.65.07-.14-.29-3.02-.79.86.22,2.16-.79,1.8.29.14-.07-.07Zm3.1-28.66l-1.66.94-.07.14,1.94-1.08-1.01-1.73,1.94-2.09,1.73-.07.79-.14-.14-.14-2.02.29-1.73.07-1.87,2.02,1.3.07-.07.29.86,1.44Zm-1.73,33.34l-.14-.58-.22-.07.36,1.37,2.16-.86.36-.86-1.08.43-.07.43-.58-.14-.79.29Zm.79-4.82l.58,2.09.29-1.58.07-.14-.29-1.01.79.29.22-.21.22-.29-.14-.94-1.51,1.44.43.5-.94-.29-.36.07-.43,1.15.43.72.65-1.8Zm.22-3.6l1.73-.65-.14-1.44-.22-.36.14-.36-.07-.72v.07l-.07-.07-1.37.58.58-1.01-.5-.36-.36.79.29,3.53Zm.43-33.26l1.66.43-.65-2.45v-.07.29l-.22.29-.79,1.51Zm2.38-2.09h.5l.65-1.3-2.66-.58.07,1.22h.79l.65.65Zm-1.3,31.82l.29.22.22-.43-.5.22Zm1.94-16.63l.22.07.07-.07.14.14,1.37-1.37,1.94-.5.36-.65-1.66.43,1.08-1.66,1.15-.22.07-.14-.58.14-1.3.22h-.14l-.94,1.37-1.3-1.51-.14.14,1.44,1.66-1.94,1.94-1.58.36v.07l-.14.36.07.29.22-.14.5.07.58-.14.65-.72-.14-.14Zm-1.08,19.3l-.58,1.94.65.14h.22l-.29-1.8,1.66-2.59-.14-.14-1.58,2.45-.07.07.14-.07Zm.29-4.1l.29.36,1.94.29,1.08-2.23,1.3,2.3.14-.07-.43-1.15-.86-1.51-.07.14-.5-.14-.65,1.3-2.09-.36.65,1.08-1.08-.36-.43.79.29.43.43-.86Zm7.63,16.63l-2.45.65-.5-1.58-1.15-.43.5,1.73-.94.36.29.5-.79.86h.07-.07.36l.79-.86,1.51-.58,2.45-.65.65-1.08,1.01-2.02.58-2.95h-1.15l2.02-1.51.14,1.29h1.22l.86.29.14-.65-.5-.14-.5.5-.07-.72-1.15-.36.65-.72-.86.29,1.37-3.1.72,1.58.36-.36,1.3-.14-.5-.5-.58-.22-.22.79-.43-1.01-.36-.14-.72-.22-.86,1.94-.43-1.22h-1.66l.86-1.08-1.22-1.01-1.08-.14-2.3-.65-1.37.14.43.43-.79.36-.29,1.15-.94-.5-.58.22v.14l.72.43.94-.22,1.51-.14,2.3.65,2.88.36-1.44,1.8-1.66,1.37-2.59.14-1.08-.22h-.5l-1.08,1.8h-2.09l1.73,2.02-.22.21h.5l.07-.29.29.22,1.87-3.31.14.58.72.14,2.59-.14,1.66-1.37.07,1.51-.65,3.17-.72,1.44.86.07-.65,1.08Zm-7.34-25.7l.07-.07-.5-.72,1.08-.14.43-.65.36.58h.29l-.07.22.36.58.72-1.58,1.01,1.22.43-1.01h.22l-.58-.72,1.37-.29.29-.36-.43-.36-2.45.5-.14-1.3-.43-.14.29,2.45-2.16.22,1.87-2.74h-.07v-.07l-2.59,3.82-.22.72,1.22.14-.22-.29h-.14Zm-.22,7.27l-.5-.79-.14.29.65,1.15.07-2.3-.07,1.66Zm1.15,20.81l.86-.14-1.51-1.44-.36,1.44.14.14h.86Zm1.44-26.21l.07-.07-.5-1.15-.36-.5h-.36l-.14.22h.07v.5l1.08,1.3-1.01-.14.07.14,1.58.72.58,1.08.07-.14.72-.07.58-.86-.65-.29-.79,1.15-.43-.86-.14-.22-.43-.79Zm0,26.21l.22-.22-.22-.07-.36.29.29.14.14-.14h-.07Zm.86-16.06l-.07.43.22-.72-.07-.07-.58.29.22.22.29-.14Zm-.07,11.66l-.14-.07.07.36.79-1.15-.07-.14-.65,1.01Zm3.38-36l.29,1.66-.65.22.36.07.94-.29-.29-1.66,1.22-.14h.22l-.79-2.3.07-1.73h-.72l-.5-2.38-1.08.07-1.37,2.16-1.08-.65.5,2.45,2.52.07.79,2.3-.72.07.29.07Zm-3.02,7.7l.72.65,1.3-1.37-.22-.86-.5.14-1.3,1.44Zm2.81,15.05l1.51,1.3,1.51,1.3h.86l1.66.43-.36.86h.65l-.29-.65,1.51.5,1.08-.22,2.16-2.45-.22,1.37,1.66-1.15,1.94-.79,2.66.94-.5-1.87-1.01-.36-1.94.79-1.66,1.15.22-1.37.5-1.44.07-1.15-1.08-2.09v-3.02l.58-.43,2.3.72.58,1.8,1.15-1.73,1.51-2.45.14-.58-1.22,2.02-.5-.58-1.37,2.09-.58-1.8-2.3-.72-.58.36v-1.51l.22-1.01-.07-1.3-.22-1.58-1.3-2.16-1.3-.86,1.22-.79,1.58-.79.36,2.38h2.38l.72-.36-.29,1.08.22-.65,1.08-.79.07-.07-3.24.07-.14-1.3-.5-.94-1.3.65.14-.29-2.74-.07,1.8.86-1.44-.5-3.02-.14-.36-.07-.29.65.07.07h-.07l-2.38-.14-1.73-.5-.07.22-.36,2.23.58-.14v.86l.5,1.94-.5.65v1.58l.29-.58v1.37l-.36-.07-.5,1.08-.29-.07-.07.36-1.58.43.14.29.86-.22-.58.94.36.79.43-.72,1.15,1.15-.94,1.3-.36.07-.65,1.87h.94l.65-1.94.94,2.88h-.65v1.87l-.14,1.15h.07Zm-1.37-18.5l.07-.58-.36.14.94,2.16.36-.07-.65-1.73-.36.07Zm0-12.53h-.07l.72,1.8,1.08-1.22-.07-.22-1.66-.36Zm2.16,21.38l.58,2.95-.94-.94v.43l-.07-.5-.14-.14.07-.14-.43-2.16.58.14v1.51l.36-1.15Zm.29,6.98l-.94-2.95.94-1.3v4.25Zm-.65-26.64l.58.36-.14-.43-.43.07Zm1.01.5v.07-.07Zm1.58,3.31l.65,1.8.79-.72-.14-.22-1.44-1.94,2.38.79.43-.07,1.01-1.44-2.95.65-.65-.22-1.15-.07,1.08,1.44Zm-.86,34.56l-.07-1.51h2.09l-2.02,1.51Zm.5-30.67l.07.43.36-.94-.14-.29-.29.79Zm2.23.86l-2.02.22v.07l2.3-.29-.5,1.15h.65l.94-2.09,1.22-1.66-.22-1.37-.14.14-1.22,1.15.14,1.01-.86-.36-.14.14-.07-.22-1.37-.58.14.29,1.15.5-.5.79.5,1.08Zm-1.44-2.45l.07-.22-.29.14.22.07Zm.29,36.36l.07.07,1.44.58-.07-.07-1.44-.58Zm.29-42.77l.14-.07-.14.07Zm3.82,41.26l-.29-.29-.07.5-2.23-.58.07.22.94.29-.29.72.07.5.29.65.07-.07-.14-1.44,2.09-.21.14-.14h.36l.36-.94.58.86h.36l.07-.58.5-.14-.65-1.01,1.8-2.59.07.22.14-.43-.86.14v.07h-.22v-.07l-1.3-.5-.5.72-.14-.94h-.29l.43,2.3-2.02-.22,1.3,1.29h.07l-.72,1.66Zm0-29.38l-1.8-.86,3.02.07-1.22.79Zm-1.3-16.7l1.44.07-.72.22-.72-.29Zm5.4,9.36l.14-.5-.79-1.15-.29.07.94,1.37-1.94,1.58-.29-.36-.07.5.22.29-.07,1.37,1.3.36.14-2.38,1.3-1.08-.58-.07Zm-1.15,10.94l-.22-.5.58,1.8.65-.43.43-1.58-1.44.72Zm.29,27.14l.29.43,2.3-.07.14-.22-.07-.21-2.66.07Zm1.51-4.61v.22l.29.43v.5l.72.43.86,2.02,1.08-2.02h-.94l-.22.36-.14-.36h-.65l-.94-2.88h.14l-1.08-1.58-.07.22.94,1.37-.5.07.43,1.29.07-.07Zm.5-14.76l.79,2.02.36-.07-.29-.79.43-.65-1.3-.5Zm.14-22.68l.94,1.73.07-.29,2.09-2.45.94,2.3.36,2.02-1.8.43-1.01.14v.07l1.01-.14,1.8-.43v-.07l1.3,2.88v-.07l-1.3-2.88-.36-2.02-.94-2.3-2.09,2.45-.94-1.66-.07.29Zm.94,1.87v-.07l-.94-.29.94.36Zm1.66,32.83h.14l-2.02-1.3.79,2.74.5-.14.5-.65.36.43.58-.14-.86-.94Zm.94-1.44l-.79,1.44,1.15-.14-.36-1.3Zm-.36-2.81l.65,1.58.29-2.59-.07.07v.29l-.07-.22-.86.86h.07Zm3.31,4.46l.79-1.01,1.08.22.29-.36.5.14-1.66-2.16-2.3.29.22-.36-1.44.65v.07l-.14.22,1.37.86-.79,1.01.5-.07.86,1.08.72-.58Zm-2.23-5.62l-.07.07,1.22,2.3.86-1.51-.58-.22-.29.22-.29-.5-.86-.36Zm.5-13.25l1.58.36-.14,2.3-1.44-2.66Zm2.59,20.66v1.44l2.38.14,2.02.65-1.8-2.45-.22-.07-2.38-.14-.72.14-.07.07v.07l-1.51,1.3,1.44-.29.86-.86Zm-.86-.22l.07-.07h-.07v.07Zm1.87-9.07l.29,1.08.07-.07-.29-1.08-.07.07Zm2.52-11.66l-.36-.58.36.58Zm.07-7.2l1.51,2.52.14-.07h.14l.94-2.59v-.07l-.22.07-.86,2.45-1.37-2.3h-.29Zm1.37,21.89l-.36,1.22.65-.65-.29-.58Zm.79-17.64l.36-.07,1.3-1.58h-.29l-1.37,1.66Z" fill="#fff"/>
  <path d="m240.33,9.36l-.14,2.52-1.15,1.22-.58.43-.79-2.66.14.14-.58-1.51-.58-2.02-.14-.22.07-.07-.58-2.02-1.58-1.08-.07-.5,1.58-1.58h3.96l1.08.5-2.81.43-1.01.22-.79,1.44.36.22.86-1.66.72,1.44-1.29.43.29.22-.14,1.22,1.44-1.87.07,2.3-.29,2.16.43.58,1.51-.29Zm-3.82,1.51l-.43-1.37.58,1.51-.14-.14Zm11.16,34.92l.43-1.51-.07-.22.14-.14.29-1.01-.36-1.44-.87,3.31-1.58-5.4,1.58.22.14-.29-.58-.14.36-1.87-1.29-.36-.36,2.38-3.24-10.8.65-1.37.87-2.02.79,1.44.87,1.66,1.51,2.81,2.66.58-.07.07,2.16-.43-1.51.29-2.66-.58-1.51-2.81,2.52-.14,1.8.22-.07-1.22-2.23.14-.87-1.66-.79-1.44,1.44-.58-.79-1.94-.29-.22.14-.14-.14-.22,1.73-1.66-2.95.36-1.44-.29-2.09,1.58-.07.43.72.14,1.51-1.15,1.44.29-1.44,1.58-.43-.07-.29,1.66.29.14-.14.36.22.43.36-2.45,1.87,1.87-2.23.86v-.14l-.43-.14-.5,1.22-.58,1.37-2.09-6.98-.43-.07-1.22-4.03.21-.29-.07-.86.79-2.23.36.65v-.07l-.21-.36.72-.07,1.08-1.15.14-2.52,3.02.5.07-.14-2.09-.36-1.15-2.45-.07-1.66-.21-.43-1.95,2.45.29-2.02,1.58-.58-.72-1.15-.21,1.08-.72-1.44.65-.14-.07-.07,2.38-.36.07-.5-.07-.07h.22l-.29-.22,1.65-.5-.14.72h1.22l-1.37.43-.07.29-.36-.22h-.07l.94.72.36-.72.21.43.79-.58h.21l.07-.14v.14h5.04l1.94.58-.58-1.37,1.15,1.73.43,1.8.22.43-.07.07.14.36-.29.07-.43,1.08.14-.07-.22,1.66.36-.07.43-2.16.65,2.66-.72.07-.29,1.08-1.15,1.3.36.36h-.5l-.07,2.66-.65-1.22-1.08,1.51.07.22,2.23.58-1.3,2.3.58,1.37.58,1.87-2.16.5,1.3,2.16-1.15-.07.94,1.15h.29l.29-.22.79-2.52,1.15,2.52-.79.07h.29l1.87,1.08.79,2.74.86.14.65-1.01,3.03,1.08.29-3.02-1.58-.29-.65-2.23-.29.43.21.72-.58-.22-.29.5-.58-.36.36,1.73-1.8-.22,1.15-1.73-1.01-.5.58-.58-.14-.14-2.02,1.87-1.15-2.52,3.1.58.5-1.8-2.52-.43-.07-.22-.58,1.73-1.3-2.16,1.66-.43-.29-.79-.87-1.94,1.22-2.23-.72.14.43-.36-.79.14v-2.74l-.22-.07,1.3-1.51.29.5.14-.5.14.58.5-.22.5,1.94h.14l-.07.14.14.58-.36-.43-.29.22.36,1.3-.29.07-.07,1.73.94,1.94.07-2.02,2.23-.43,1.37,5.33-.65.07-.43,1.15.36.14-.14.22.21.22-.14.14,1.37.14,2.66.79,1.51-6.12.07-2.59.43-1.66-.43-.07.36-1.8-.21-.72-.07.07.07-.22-.14-.36.36-.36.07-.36h.14l.43-.43.29.58.72-2.95,1.01,2.23.29-.43-1.01-2.16,1.94.5-.14-2.16.87-1.3.5,2.45-1.15,1.51,2.23.36-.79.86.29.22,1.01-1.15,1.8,2.16-.21-.07.79,1.01h-.43l.5,3.02,1.22,2.3-1.44-.07.07,1.3,1.73,1.66-1.44,2.3.86.29.94-1.51-.07-1.15-1.01-1.01-.14-1.66,1.44.07-1.22-2.3-.5-3.24-1.08-1.37,1.22-1.87-.29-1.51-.65-.79-.65-.07,1.3,1.66v.07l-1.44,2.02-1.37-1.58-.43-.07-1.3-.22.72-.86-.5-.86.58-2.09-.07-.36.43-.94h2.74l-1.01.07.21.14h5.76l-.36-1.22,1.01-.29.22.29.43.86h.72l-.65.14.07.14.58-.14.14.07h2.52l1.51,2.09-.79,2.66-.65-2.16h-1.94l.22.36h1.8l.65,2.16-2.52,8.5.14.58-.29-.22-.14.65-.21-1.01-.22-.14-.21.58.43,1.58.65-1.44-2.38,8.06.5-2.16-1.58,1.73-.07-.07-1.01,3.46v1.3l-.21.94h.07-.07l-.07.29-2.3,7.92.43-.07.14-.14.14.14.65-.14-.29.36h.07l-.72,1.08.29.29-1.15,4.03-.36.14-.57,2.09.07.5-.43.36-2.23,1.51-.86.07.29,2.59-1.95-.43-.58.07,1.66.43-.65,1.01.29.14-.43.07-.36.65-.72-.29.65.21h-2.16l-.5.29h-1.37l1.08-.29h-5.47l1.44-2.3,2.74-.29.86.79h.07l1.58-1.8.14.5.79-.94-1.44.22-.07.22-.07-.14h-.22l-.94,1.15-.65-1.8,1.3-.22-1.01-1.8-.87-.14,1.51-1.58,1.51,1.94h.14l1.22-.58-1.08-1.37v-.14l-.21-.22.14.07-.43-1.73-1.08-.29-.21-.29.65,2.59-1.94-.07,1.3-2.52-.07-.07-.43.07-1.44-.29-.79,1.58.65,1.22-.5.58,1.65,2.88-1.58,1.87-.94-.87-2.74.29-1.44,2.3h-.43v.58h-4.1l-2.02-.65-1.22-1.73-1.22-4.32-.72.65Zm-6.55-29.66l-1.44.72.07.43,2.23-1.15.22-.07-1.01-2.02-.14.29.5.79-.58.72.14.29Zm.5,7.13l.36.07.14-1.15-.29-.43-.21,1.51Zm.29-3.74l.22-2.3-.22,2.3Zm.29-6.62h-.14l.22,3.1.79-.29.79.14-.22-2.95h-1.44Zm1.51-9.07l.07-.07-.65-1.15-.65.5-.36.79.94,1.51.72-1.58h-.07Zm2.52,12.31l1.58.22.07-.36-2.23-.29.94-2.66-.14-.65-.43-.72-.43.36.29,1.01-.94,2.66-.5.22,1.8.22Zm.5-8.86l-.5,1.15.36.94.14-.07.5-.79-.5-1.22Zm-.14,3.96l.5.14-.21-.43-.29.29Zm1.15-.36l.14.22.07-.36-.29-1.08-.21,1.51.29-.29Zm.72-7.06h-.07l-.14.22.22-.22Zm.86,31.61l-1.08,1.51.14.07,1.08-1.44-.07-.43-.07.29Zm.07,4.46l-.58-1.3h-.07l.65,1.44.5-1.73-.07-.07-.43,1.66Zm-.14,5.98l.72-.22-.65-1.01-.07,1.22Zm.22-31.32l.43.43.07-.29-.43-.43-.07.29Zm1.01,20.09h-.86v.07h1.66l.43-.79.58.14.43-.86.5,1.01.29.07-.5-1.15,1.66.36v-.07l-1.87-.36-1.22-.43-1.08,2.02Zm2.3,2.66l-1.95,2.52.14.22,2.02-2.59,1.08-1.58.65,1.37.94,2.16.22.14-.07-.29h-.07v-.07l-.86-2.09-1.01-2.23-.22.29.29.65-.65-.14-.22.29-2.95.72-.29.5.07.86,2.88-.72Zm-2.09-27.79l1.15,1.3h.5l-.87-.94-.79-.36Zm1.44,33.19l.43.07v-.07l-.5-.07-.14-.5-1.08-.07.22.79.43.65-.14.07.36,1.87,1.01.14h.07l-.65-2.88Zm-1.01-15.55l.29-.07-.36-.07.07.14Zm.36-13.75h.07l-.14-.29-.29-.07.36.36Zm.87,16.13l.07,1.44.87-.07-.94-1.37Zm.94,15.84l.43-1.22-.29-.22v-.07l-.65,1.73,2.38-.07v-.21h-.29v.07l-.07-.07-1.51.07Zm.21-6.34l.72,2.3,1.58.65.22-.43-1.01-.36-.58-1.73-.94-.43Zm2.09-3.38l2.23-.58.94,1.44.14-.29.14.07-1.15-1.8,2.09.22-.07.22.43-.07.51-1.44-.22-.36,2.02-.65.29-2.02.5.07.21-.65-1.8.65.79,1.44-2.66.79-2.09-.22-2.23.58-.07-.07-.57.43.07.14-.14-.07-.07.07.43.07.29,2.02Zm.94-17.06l.86,1.94h.14l.79-2.52-1.94.29.14.29Zm1.15,20.81h-.29l-.58.94.07.36.65-.22.43-.58-.36-.79-.07.07.14.22Zm-.65-1.44v.07l.43.94-.43-1.01Zm1.01,1.87h.86l1.15-.65-1.73-.07-.29.72Zm.36,6.77l1.66.14.22-.72-.36.07-.79-2.59,1.01.43-.36-.86-1.58-.72.79,2.59-.58,1.66Zm1.87-6.7h-.65l1.22.07-1.73,1.01.29.65,1.3-.07-.22,2.52.29.14h.14l.22-2.3-.86-1.51,1.29.29.14-.5,1.37-.29.79-.22-.14-1.66,1.8-.07,2.23.43-1.22-2.66,2.23-.36-.58-.72-2.23.36,1.29,2.88-2.81-.5-1.8.07.14,1.44.58.86-1.37.29.07-.43-1.08.29-.5-.79v.14h-.07l-.14.65Zm1.15-5.4l-.14-.36.07.36h.07Zm3.6-7.27l-1.58-1.08-.94,2.74,1.66-1.08-.21,1.3.36-1.08h1.51l.5-.72h-.36l-.22.29-.43-1.3-.29.94Zm3.89-1.3l.14-.79-.29-1.08.43.07-2.88-.22-.86-.72-1.01.14.72,2.45-1.51-.22-.14.29,1.73.22-.29-1.15,1.22-.14-.21-1.01.94.72v.22l1.08-.22-1.22,1.66h.43l.79-1.08.22.94.72-.07Zm-4.18,4.46l-.29.14,1.01.14.07-.22-.79-.07Zm.87-21.74l.72-2.74.07-.07.07-.22.14-.5,2.09-.94-1.66.14.21-.36-.43.22-.21.58.36-1.37.72-.07.58-.79.65.14,1.3-.36-.43.94-.14-.07-.65,1.01h-.29l.14,2.74-1.94-.5-.07.07-.58,2.3-.65-.14Zm3.53,1.37l-.43.07-.65,3.46-2.38-.86.22.58.65.07,2.52.94.58-3.24-.5-1.01Zm-1.87,8.5h-.36l-.86.65,1.01-.14h.07l.79-.14-.21.22,1.51-.07.14-.58-2.09.07Zm-.94,13.97l.65.72.72-1.44-.58-.72-.79,1.44Zm2.23-1.58l-.07,1.08,1.15,1.44.14-1.8-.58-1.8-.29-1.22-.21,1.37-.22-.94-.21.22-.72-1.3-.79.07.43,2.02.79-.94.58,1.8Zm-1.44-10.22l.29-.36-.43.07.14.29Zm.86,18.14l-.58.72.94-.07-.36-.65Zm.65-17.35l-.72-1.08-.14-.07.72,1.08.14.07Zm.43-14.4l-.43,1.22h.14l.29-.79v-.43Zm.72,34.27l-1.08.22.58.14,1.58-.36-.36-.79-.21.29-.36-1.37-.94.07-.07.14.87,1.66Zm-.36-3.53l-.29,1.22.5-.58-.22-.65Zm.36-16.92l.07-.14-.14-.07.07.22Zm.5-5.11l-.36,1.73.29,1.22,1.29-.07.36-.58h-1.08l-.5-2.3Zm2.09,32.11l2.23-1.51.5-.36-1.22,4.03-1.22,1.73-2.02.65,1.15-1.87-.29-2.59.87-.07Zm-1.44-34.78l.22.43.72-1.66-.14-.65-.79,1.87Zm2.38,20.38l1.8,1.58.21-.5-2.02-1.8-1.44-2.23,3.38-.07-1.15-.86h-.14l.07-.07-.36-.29-1.8,1.3-.65-.94-.29.29.94,1.37,1.44,2.23Zm-2.16-8.21l.14.58,1.37,1.44.36-.36.29-2.52.65.07-.72-.72h-.21l-1.22.29h.43l-1.08,1.22Zm.43,13.46l-.36.65.22.72.94-1.51-.79.14Zm.29-27.79h.29l-.21-.22-.07.22Zm.72,7.7l-.14.22.29.58.5.14-.86-1.51h-.43l.36.58h.29Zm.43-13.82l.29-.36-.07-.14-.36.43.14.07Zm.65,34.92l.43-.58-.43-.79-.72.14.72,1.22Zm.58-36.5l-.07-.07-.5.58.14.07.43-.58Zm.22,34.56h.21l-.14-.14-.07.14Zm1.15-13.18l1.58,1.37.07-.43-1.95-1.58-.21-.07-.07.65.58.07Zm.5,14.62l-.36-.29.72-1.08-.36,1.37Zm.14-27.14l.14.14,2.09-.79.72-1.37,1.66-.79-.07-1.73-1.66.79-.72,1.37-2.52,1.01.36,1.37Zm1.22,11.16l.07-.14-.43-.43,1.44-2.38-1.29-.43-.72,1.22.07,1.37.86.79Zm1.08-20.74l.5,1.58h.43l-.5-1.73-.43.14Zm4.39.22l-.29-.14-2.16-.22v.07l2.45.29Zm-2.23,2.66l.07,1.73,1.87.79-1.29-2.23-.65-.29Z" fill="#fff"/>
  <path d="m291.45,51.84l-.36-1.66-.29-.14.29.07-.21-1.08.57,1.22h.07l-.94-1.87-.29.07-.36.58v-5.62l.14-2.09-.5-.94-.14.22v-.5l-.21-.43h.21v-6.12h.22l.29-2.59v-1.66l.65-1.3v-5.76l.79.29-.07-.07-1.08-.36v-4.68l1.37,1.51,1.8-.58.21-.86,1.66-.07v-.36l.29.29h.36l.07.5.5.43-.29.72.22,1.44,1.22,2.09-2.02-.29.07.07,1.51.22.72,1.37.87,2.88,3.02.36.36-.43-.14-.43-2.81-.29-.58-1.87-.29-.07.22-.29-.22-.65.58.14.5-.72,1.66-2.16h.07l1.08-2.09,2.52.58.72,1.22.58-2.02,1.87.14.22-.29v.36l.65.07-.65.94v2.16l.43.72.22-.36v.65l.65.14-.65,1.22v1.08l.86-.5-.72,2.38-.14-.86v.22l-.72-.43.36-1.22-.07.22-.65-.07.36,1.58h-1.15l.43,1.37-1.44,2.16-1.01.14-.36.58.94-.07.07,1.66.43-.07-.07-1.73.58.58,1.44-2.16-.72-2.16h1.44l.72,3.31v1.37l-.58,1.44v1.58h-.22l-.07.43.79.07-.79,3.1-.43-1.01v1.08l.36.14,1.08,1.58-.72-.14-.07.43.07,1.8-1.44.14-.21-.43-.72,1.08-.36,1.22.86-1.22,1.44-.14v3.02l.43.14v1.37l-.07-.14.07,2.38h-.94l-.72,1.37h1.58l-.58,1.37-1.37.58h-7.13l-.65-.58-2.02.58-.5-.58-.86.58h-2.66l-.43-.29.29-1.3.79-3.02,2.52.5-.29-.43.58.07.36-1.15.87,1.01-.43.22.72.07-.36,1.08.79,1.08.94-.5-.5-.94-.87-1.01,1.95-1.15,1.51.86-.87,1.51h.29l.43-.72,2.59-.65,2.09.65-1.37,1.51h.07l1.37-1.51-.22-1.37-.36-.07.29-.22-1.15,1.01-.36-1.08-1.37.36-.79-2.59.22-.36h-.58l1.58-1.66-.5-.79-.29.29-1.15,1.73.79,2.59-1.51-.86-1.94,1.15-2.09-.22-2.38-.43-1.66,2.02h-.07l-.43,1.58-.21.94.36.29-.36-.14-.07.22-.14-.36h-.07l.87,1.8-.94-.29Zm-1.37-10.44l.22.94v-.65l-.22-.29Zm5.83-24.12l.58-1.94h.07l-.87-.86,1.44-.58-.36-.79-.65-.22-1.44.58-1.44-.22.14.72-1.3,1.51,2.38.36.21-.29,1.22,1.22-2.02.14-.29.36-2.02.65-1.37-1.51v-1.37l.5-1.58-.14.07-.07.36v-.36l-.29.07v-1.44l.43-2.16v-1.51l-.43-.5v-2.81l.58-2.81,1.37-.5h2.66l.29.07,2.09.29-2.38-.36h7.99l-.22.36-.58,3.24-1.65-.14-.07-.07-.22.22-.58,2.38-.72-.07.29.86-.36.14h1.08l-1.08,2.81-.87-2.52.87,2.59-.14,1.22.86.29.29-1.94.5-1.37-.43-.72.58-2.38,3.38.14,1.01,2.45,1.01,2.74.29,1.3-.79,2.45h.07l.72-2.3,1.22,1.44.29-.43-1.01-1.22-.29-1.3-1.01-2.74-1.01-2.45-3.38-.14,1.66-1.08.57-3.24h2.3l-.72-.36h2.66l1.44.58.5,1.37-.36.43.36,3.82v1.37l-.22.07.22,1.37v2.81l-.94.22.94,2.59-.5-.65v.29l.14.29h-.14v.72l-.29-.72-1.66-.14-.79,1.01-.58,2.02-.72-1.22,1.3-.79v-.07l-1.3.79v.07l-2.52-.58.94-1.8-.14-.22h-1.73,1.29l-.65,1.3.36-.07-.36.72.29.58-.72.14-.36.79-1.66,2.16-1.08,1.51-.72-1.37-.65-1.08h-.65l.29-.65-.22-.36h.36l.29-.79-1.22-1.22Zm-5.33,25.92l.65-1.87-.14-.07v-.21l-.72.86-.07.72.36,1.73,1.87-.14-.21-1.08-1.73.07Zm4.68-10.44l3.03.22,1.87-.72-.36-1.51-1.37.5-.14.94-.72-.72-2.59-.22-4.54-.5-.07.5.94,1.08,3.96.43Zm-3.46-5.9l-.43.86.36,1.44.65-.07-.58-2.23Zm-.14-4.25l.94-1.3h-.14l-.87,1.3h.07Zm1.08,17.57l1.37,1.44,1.66-1.87-.29-.29-2.88.72-.72-.07-.29.36.36.65.79-.94Zm-.14,4.18h-.07l-.94,1.01,2.09.14,1.73-2.16h-1.15l-.79.86-.5-.86-.36.86h.07l-.07.07v.07Zm-.58-2.3l.14.36v-.36h-.14Zm2.38-13.25l.43.14.43-2.23-.14-.29-1.15-1.8h1.15l-.07-.72.5.65h1.22l-.07-.72-2.52.07-1.08.86v.07l.36.43.5-.36v1.01l.43.5-.36.5v.5l-.22-.22-1.37,1.87.65-.14.94-1.22.29,1.08h.07Zm-1.66-18.14l.29,1.37.36-.5.36-.58v-.07l-1.01-.22Zm.65,12.24l-.5,1.58.14.22.51-1.8-.14-.29-.43-1.58v.14l.43,1.73Zm-.14,19.15h.5l.07-.07h-.65l.07.07Zm.36-32.76l1.08.22v-.07l-1.08-.22v.07Zm.65,25.92l.94,1.3.94-1.3-.94-.29-.65-.07-.29.36Zm0,2.59l.14.14,1.29-.29-.36-.58-1.08.72Zm3.46-31.1l-.65-1.87.14-.5-.22.07-.72,2.02-1.29-.14-.22.36,2.3.22-1.66,2.74h-.14v.07h.14l.14.29,1.22-.43,1.08-1.73h-.43l.72-.5.29-.5.07.22.72-.43-.29-.65-1.22.79Zm-2.66,43.27l.94.14.86-.86-.43-.65-1.37,1.37Zm1.15,3.24l2.02-.58.65.58h-2.66Zm1.3-38.45l-.14-.43-.29,1.01h1.37l.36-.58h-1.3Zm1.44,4.54l-1.37-1.51-.43.65.79.86h1.01Zm1.44,17.42l-.5-.72-1.15.79,1.15-.07h.72l.43-.58-.14-.36h-.14l-.36.94Zm.14-21.1h.5l-.36-.79-.58-.14-.07.14-.86-.07.21.86,1.37.29-.22-.29Zm2.95,12.74l.36,2.16h.58l-.07-.65-.43.07.36-.5-.29-1.37.72.65.07-.07-1.29-1.22-2.88,1.15-.65.72,3.1-1.22-.87,2.16.5.14.79-2.02Zm-3.03,4.68l.14.72.43-.65-.58-.07Zm.58-16.63l-.43.86h.07l.36-.79v-.07Zm-.07,35.64l1.15.29,1.08-2.16-.29-.29h-.5l-.87,1.73-.94-.29.36.72Zm.43-15.34l-.14-.22.07.22h.07Zm.65,2.59l.07-.07-.58-1.94-.07.07.57,1.94Zm.07-4.39l.72,2.38-.14.43,1.01,1.51,1.58-.22.36-1.37.43,1.01.65.14-.14-1.22-.86-.36v-.07l-2.81.14-.72-2.38.65-1.66,2.16,1.8h.65l.5-.14v-.07l.29-.07h-.21l2.02-2.45-.14-.14h-1.44v.14h1.37l-2.02,2.45-.07-.65-.58.14.5-1.22v-.72h.36v-.14h-.22v-.22l-1.22,2.81-2.02-1.73-.5.14.5.07-.65,1.66Zm2.74-12.96l-.21-.14-1.95-.14v.14l2.16.14Zm-1.44-6.34l1.58.22-.36-.94-1.08-.14-.14.86Zm1.51,29.09l.43-.43-.07-.22-.43.36.07.29Zm.22-1.01l-.14-.5-.07.43.22.07Zm.29-3.02l1.58.43-.07-.29-1.44-.36-.07.22Zm1.22-16.27l-.22-2.45-.65-.14.22,2.52.65.07Zm.79,13.18l.58.22.07-1.01-.94-1.94-.65-.07-.14.58,1.08,2.23Zm.94,8.93l-.57-.14.5.65.21-.58-.14-.22v.29Zm.94-11.59l.36,2.88-1.15.22.79-3.1Z" fill="#fff"/>
  <path d="m314.5,40.32l.36-.72-.36-.65h.14l-.58-1.22,1.58-1.58h3.38l.22-.65h4.1l-1.01,2.38h.58l.94-2.3h2.74l-2.02,2.23,1.58-.65v-.29l.07.22.43-.14-.14.86.07.14.14-.14-.07-.22.22.07.86-.94v1.08l.58.14,1.01-1.8-2.66-.5-.07-1.37h2.74l2.52,1.44,2.23.79,1.8.5,1.87.14.79,1.37-.22.5h.72l2.45-.65.79-2.02,1.01.14v-.14l.72-.07v-.07l-1.29.14.79-2.09-.36-2.52h-.22l.36,2.52-.79,2.09-2.66-1.87-.36-.14.14-.07-.72-.5-.65.36v.22h-.43v-.07l-1.08-.14-1.3-.5-.36.07.07-.22-.29-.07.36-.36.29-1.08-.58.5-.65-1.66,1.29.36-.21-1.22-.07-.29-.07.07-.5-1.22-.79.22.36,2.3-.43,1.94-3.17-.58-1.51-.29-1.44-.36-1.37-.5v1.08l-1.44-.5-2.66-1.37,1.73.79-.65-1.3-1.08-.5-1.22-.86-1.15-.86.29-1.22-1.44-.43,1.15,2.3-2.09-2.16-1.3-2.3-.14-.07-.5-1.44-.29-1.44-.22-1.51-.07-1.44.29-3.17.14,1.51,2.16-.43v-.22l-2.16.43-.14-1.44.36-1.37,1.22-2.66,1.66-2.38.43-.07.58-.65,2.02-1.66.22-.58.29.22.94-.65,1.3-.65,1.29-.58,2.74-.94,2.88-.65-2.3,1.87,1.58.29-.86,2.02.94.94v-.79l.65.22.36-.29-1.08-1.37,2.02-.86v-.29l-.94-.14,1.08-.86v-.29l.07.22,1.15-.94,1.15-.22-.22-.72,1.15-.07,2.95-.22,1.3.07,2.09.22.86.86,2.16.43-.21.58v.07l.58.5.5.14.58-.07.14-.43-1.08.22.14-.79,1.01.36.36-1.08,2.66,1.15v2.16l-1.08,1.44.94-.5-.22,1.3.65-.86v-2.16l1.51,1.73-.22-1.08,2.45,1.66,1.29,1.8.87.14.36,1.44-1.37,2.95,1.87-.5-.65,1.37.65.07,1.15-2.52-1.87.5,1.37-2.95-.36-1.37.94,1.08,1.58,2.45,1.01,2.74-1.37,3.02h-5.76v-.43h-1.94l.22-.36-1.73-1.22h1.94v-.36h-2.02l-.86.22.07.07h-.14l-.07.29-.22-.29-.5.14.14-.22h-.79l-.07.65,2.3.07-1.51,1.8,1.73-.43-.87,1.51h-2.09l.07.22h-1.44l.58-.5-.14-.86h-.65l-.86.79-.65-.72-.07.07.07-.07-.29-.29h.43l.5-.94-.22-.58-1.44.36v1.87l-1.37-1.51-.07.14.43.5-.72-.29-.57.29v-.43l-.79-.29-.72.29-.5-.72-.5-.14.29-.14-.29-.43-.36-1.8-.94-2.02,2.23-.07.14-1.73,2.09,1.87,1.08-2.81.5.14-.07-.36.22-.43-.94-.22-1.44-1.08,1.94.07-1.08-3.17,2.3-.36h.14l-.29-.22-2.02-.65-2.3.36,1.08,3.17-1.94-.07,1.44,1.08-1.08,2.81-2.09-1.87-.14,1.73-2.23.07-.65-.07-1.37,1.37-1.15-.22-.43.43.14.94,1.37.22.07-.29,2.95-.07-1.01,1.66-2.3.58-.07.43-1.22-.14.07.07,2.52.29-.43.79,1.44-.36,1.15.07.22-.22,1.01,1.44-2.59.65-.29.36-.14.22,1.58.94.21-.5-.14-.5,2.88.65,1.37.86-1.3,2.02-1.01-2.59h-1.44l.72,1.58-1.37.43h.29l-.86,2.66,1.15.22-.87,1.87.87-1.01.07-.86.94-.29-.14-.29-1.01-2.3h1.73l.94,2.3,1.08-1.73,1.37,1.3.36-.07,2.09.22-.94,2.3-2.66.43-1.87.43.29.07,1.29-.29,2.66-.43.86,2.81-3.24-.5,5.26.86-.07-.14-1.51-.22.29-1.15-.43-.5.43-.07-.58-1.73.94-2.3,1.58.5-.57-1.37-.72-.22-2.59.36,1.08-.43-1.58-.14-1.51-1.44,2.02.5,2.66-.36.21-.29.79,1.73.94.22.07.43,1.08.29-.07.07,2.81.79.65.86-1.08.43,1.08,1.01,1.22.29-.94,1.51,1.51.07,1.3-1.8-.79-.22-1.08-1.01,1.08-.43-.65-.94,1.37.5,1.37.58,2.59,1.44h-1.37l-.22.36.43.36,1.08.94.94,1.15-.22,1.01-.72,2.66-.65,2.59-1.58,2.02-.07.07.72.14.43.58-.14-.43,1.87-.5,1.37-1.73.65-2.59.72-2.66.22-1.01,1.37,2.66.43,1.37.29,1.44.21,2.95-.07,1.73-.22,1.44-.94,2.81-.72,1.29.22-1.15.79-1.73-2.59-.58-.22-.29-.36.79-.21,1.22-1.73,2.38.07-1.08-1.37-.29-1.87,2.59-.36-2.38-1.15.22.21,1.51-.79-.14.36.36.22,2.09.58.14-1.44,2.38-.14-1.44-.22.07v.29l-1.22.36-2.09.72v-.07l-.43.14-2.81.65-1.51.29-.36-.58-1.51-.58.14-.72h-.36l-1.01,1.66h2.74l-1.44.14-2.95.22h-3.38l-.14.72-1.3,1.37-1.44-1.3.07-1.87-1.08-.14-1.44-.29-.94-.29-.07.07v-.07l-.87-.22-.14.14-.29-.29-.5-.14-1.37-.5.07-.36.36-.79-.22-.86-.65-.07.29-2.66-.29-.5-.14.86-2.74.72.72,1.3-.29,2.66,1.22.14-.72,1.58-.07.29-1.37-.58-1.3-.65-1.22-.79-2.3-1.87-1.01-1.08-.87-1.15-.07-.65-.87-1.58-.43-1.44Zm1.22-1.8l.72,1.01h.07l-.72-1.01h-.07Zm.43,3.24v.29l.94,1.37.29-.21-1.15-1.66h-.22l.14.22Zm1.73-27.07v.22l1.15-.14,3.03-.94-.14-.14-2.88.86-1.15.14Zm.29,10.08l.29.65.79-.86-.36-.65-.72.86Zm6.55-11.88l.65.72.07-.22-.5-.65h-.21l-2.09-1.01-2.52.29.22.14,2.3-.22,2.09,1.01v-.07Zm-4.11,10.15l-.21.94.65-.22-.14,1.08h.21l.29-2.23,1.15,2.23-1.3-2.59-.21.5-.72.22.29.07Zm1.37-2.66l-.58,1.51.86.07.58-1.44-.86-.14Zm3.38,8.35h-2.09l.5,1.01h1.58l1.01-.22v-1.08l-1.01.29Zm-1.51-13.46l.79-.29.14-.36-.94.36v.07l-.5,2.02h.07l.43-1.8Zm0,3.02l1.44,1.08.29.29h.22l-.5-.43-1.37-1.08-.07.14Zm.29,19.66l1.51,1.44.07-.36-.07-.07v.07-.07l-1.15-1.08-.36.07Zm6.48-19.22l-.65-1.94-1.73-.07.07-.29-.86.79-.58-2.23v.07h-1.22l-.86,1.58,2.09.07.43,1.87,1.87-1.73.79,2.45-2.52-.22-.07,1.37.07.29v-.36l1.22.07.79-.86.07.94.14.07v-.29l1.15-1.01.5-2.3.14.36.21-.43-.5-.07h-.14l-.43,1.87Zm-4.54,2.74l.5-.43-.43-.07-.14.22.07.29Zm.22.36l.29.65.72-.07.07-.72-1.08.14Zm.58-1.08l.07-.07-.29-.22-.07.07.29.22Zm.36,19.44l.36.36-.65-2.09-.21.07.5,1.66Zm.79-27.5l.14-.79-.65,1.01-.58,2.02,1.8.07.14-.43.79-1.22-.58-.94-1.08.29Zm.94,29.23h-.5l.14.94h.87l1.44-2.09.29.79.5-.65-.79-2.3-1.44,2.09-1.01-1.01-.65,1.08.36.29h.07v.14l.72.72Zm-.72-32.26l-.29,1.3.43-.14.29-1.08,2.23-.36-.14-.94.07-1.15-.72.36.65.65-1.73.29-.79,1.08Zm1.3-2.74l.14.14.07-.58-.21-.14-.07.72.07-.14Zm.14,15.7l.14-.07-.07-1.08-.14.07.07,1.08Zm.79,22.82l.94-1.15-1.22.65-.07.07.36.43Zm.36-21.67l1.3.5.94-1.58-.86-.14-.79.29-.58.94Zm.72,20.38l-.07.07v.07l.07-.14Zm4.1,2.09l.36,1.66.14-.79-.5-2.52-.86-1.58-2.88-.94,1.87,2.23,1.01.36.86,1.58Zm.22-34.7l-2.95.07,2.02-2.09.94,2.02Zm-1.95-7.06l.79-1.08-1.22.5.36.79.07-.22Zm2.88,30.1l-2.95-.36,1.08-.29,1.87.65Zm-2.66-14.47h-.07l1.15.07.29-.94-1.37-.14v1.01Zm1.01,5.62l-.22-.07h-.07l-.14,1.44.5,1.22.86-.29.14-.22h-.07v-.29l-.07-.29h.14l.14-1.44-1.15-.22-.07.14Zm.36-11.95l1.01-1.66.36,1.8-1.37-.14Zm.07,18.07l.22.65.21-.22-.14-.43-.22-.07-.07.07Zm2.3-6.48l-.43-1.8-.14.22.36,1.51.22.07Zm-.07,14.76l.22.72.14-.36-.29-.5-.07.14Zm.86-12.46l-.43-.86-.14.14.36.65.21.07Zm4.97,24.84h-2.74l1.22-1.94,1.51,1.94Zm-1.01-5.69l.72.07h.07l.29-.43h.14l.79-1.15,1.01,1.01.07.14h-.07l.5,1.22.65.29.22-.36-.14.07-.5-1.44-.58.07-1.08-1.15,1.08-.36-.07-.29.94-.07h.07l-.65-.29.07-.14-1.08.36-.5.79-.79-1.87h-.07l.07-.07v-.07l-1.22-.07-.86-3.31-.14-.5-.5,1.3.29,1.15.87,3.31,2.09.14-.87,1.3-1.01.36-.07.36h.22l.07-.36Zm1.08-5.98l.72,1.73.14-.14-.21-2.09-.87-1.22.22,1.73Zm.5-20.23l-.29-.07h-.07l.36.07Zm.65,15.48l-.72.07.07.07.86-.07-.21-.07Zm.72-2.16l1.08,2.45.65.22-1.15-2.59-.21-.07-.14-1.94.65-.14.21-.58-.65-2.23-1.73-.29.94,3.24h.22l.14,1.94Zm.43-5.18l.79.14.65-.65-.14-.29-.22-2.45,1.87-.43.07-.14-3.38.72,1.01-2.74.14-.07-.07-.29v.07l-.36.43-.58,1.58-.65.07-.36.36-.14.72.72-.07.14,1.44.65.79-.65-.07.07.07.43.79Zm.58,12.02l-.79.79.43.72.36-.58.65-.07-.5-.86.5-3.02-.07-.07-.58-.14-1.01-1.22-.14-.07-.43,1.08.22.22-.07.5.5.79-.65-.22-.29,1.44,1.87.72Zm1.8-30.67l-.29-1.08-.29-.5h-.79l.36,1.37-2.02-.07.5.86,1.8.07-.5,1.3.43-.14.07-.14-.14-.29h.14l.07-.29.22.36,2.59.58-.43,1.01.14-.14h.29l.86-2.23-3.02-.65Zm-.79,34.06l.14.22.94-.07-.86-1.44-.29.65-.22.07.22.58h.07Zm0-14.54l.43.86.14-.36-.21-.43-.36-.14v.07Zm1.58,13.54l-.29-.94-.86.07-.07.29,1.22.58Zm1.3-5.54l-1.3.36.36.07,1.51-.43,2.23-.14v-.14h-.5l-2.09.07-.22.22Zm-.36-29.74l.07.22h.07l.14-.79-.58.29-.07.29h.36Zm1.44-4.03l.22,1.01-1.51-1.73,1.3.72Zm-1.08,36.72l-.07.07.36.65-.29-.72Zm.22-11.38l.5,2.02-.58,2.52,1.66-.29.14.07.65-2.45-.29-1.01-.58-.43-.79-2.74h-.07l-.65,2.3Zm1.15,17.28l.22,1.58.22-.07-.14-1.22-.29-.29Zm.65-32.98h-.07l.07.79h.36l.36-2.16,1.51-2.38-.22-.22-.79,1.22-.5-1.8-.58.72.29,1.08-.43,2.74Zm1.73,20.66l-.07-.58-.94.22,1.01.36Zm-.22-18.94l.65-.5-1.01.07-.29.29.65.5v-.36Zm.5,32.98l-.29-1.94,1.58,1.22-1.3.72Zm3.89-3.1l1.37.29-.72,1.37-1.51,1.66-2.45,1.66,1.44-2.38,1.87-2.59Zm-1.44-36.94l-1.37-1.8,2.16,1.94-.79-.14Zm1.15,30.02l1.29.36-.36-.58-1.01.14.07.07Zm2.52-2.74l-1.51.43,1.29,1.87,1.73-.14-1.51-2.16Zm-.14,10.37l-.65.36.72-1.37-.07,1.01Z" fill="#fff"/>
  <path d="m367.7,47.3l.86,2.23,1.3,2.74-2.81-.58-.5-1.37v-9.86l.22-.07v-6.84l.65-.14,1.73-.5.29.65v-1.94l1.01-.5,1.22-1.8.94-.07-.07-.65.21.58.72-.07.29.36h.14l-1.01-1.22-.86-1.37,1.01-.14-.36-.5h-.07l.14.29-.94.14.14.22-1.01-.14-.65.14h-.14l.87,1.37-1.8.22-1.01-1.8.94.07v-.14l-.36-.07v-1.44l-.29-.36h.29v-2.16l-.07.07-.94,1.94-.43-1.94v-4.25l1.73-.86.72,2.02h1.08l.36.14.07-.14v.14l1.66.5-.36,1.66h.86l.36-1.66,1.8-1.73h.07-.14l-1.66-.14-.22-2.66-.29-.36-.72-2.09v.14l.5,1.44-.86.65-.07.58.87-.72.21,2.52.36.5v.07l1.3.07-1.22,1.15v.58l-.43-.14-.14.14v-.22l-1.51-.43h-1.51l.22-1.66,1.66-1.44h-.07l-1.58,1.44-.22,1.66-.79-2.3-1.73.86v-2.23l-.43-.29.43-1.08v-3.38l-.36.14-.29-2.09.65-.5v-3.24l.58-2.81,1.37-.58h.22l-.58-1.08,2.52.07,1.15.07.07,1.15,2.66.58,1.66-.36-.22.79h5.98l.86.94.58-.94h3.38l-.07-.07h.07l.14-.22,1.37.14h.58l.86-1.08h13.68l-.14-.07h1.44l.43.5.79.22,1.29,1.3v10.15l-.43-.36-3.02-.07,1.22-2.88-1.29.43.14.29-.43-.22-.07.07-1.01,2.23h.22l-.07.07,2.88.07.43.36-.58,1.37-1.37.58h-1.44l-.72-.43-.07.14v.29h-5.69l-.07-.65-1.01.22.29.43-.65-.29-1.22.29h-5.76l-1.01-.43,2.02.14-1.8-.14,1.58-2.16v-.29l-3.17-.29-.36.22,1.94.14-1.8,2.45h-.14l.36,2.59-1.73-.36-.14.36,1.08,1.73.5.14-1.15-1.8,1.73.43-.21,1.44.79.14,1.58.79-3.02.94-1.3-.22-.14.22,2.23.36,3.03-.94-1.51,2.95-.87,1.08.65.86-.29.5v1.58l-.87-.29-.5.79.07.07,2.81-.29-.07-.58.29.36.58-.79-.14-.07h.14l.07-.07-.07-.07-.86-.07.43-.58-.94-1.22,1.15-2.23-.43-1.15,1.15-.72-.36-.07-1.58-.79,2.16-.14,2.45.07-.72.43h8.21l-.58-.43,1.01-2.3h1.44l1.37,1.22,2.02.72v2.66l-.21-.14.21,1.51-1.37-.22,1.22,2.16-2.88-.14,2.23,1.94-1.95-.07.36,2.45-.07.14.43,1.22-1.3.72h-5.76v.07l-.07-.22-.65-1.01v-.29h-1.87v.22l-.65-.07.14,1.44.72,1.15h-5.76l-1.95-.43-2.81.07.65,2.59v1.22l1.22,2.59v-1.73h2.81l-.79,1.8.22,1.22-.5.14-.22.43.94-.36h.29l-.14-.72h-.36l.58-.79.43-1.08-.43-1.15h13.82l-.14,1.15-.36,2.02-2.09.14-2.38.07.22.65,2.16-.07,2.09-.14.36-2.02.07-.29h-.07l.07-.07.07-.58h.79l.65-.5h1.37l2.74.58-.72.72-1.87,2.09-1.08-2.95-.86.29-.65.58,1.51-.58,1.08,2.95,1.87-2.09.72-.72.58,1.37-.72,1.22-.79,2.38-1.73-.72.07.29,1.66.72.79-2.38.72-1.22v10.15l-.58,1.37-1.37.58h-.65l-.72,1.01h-4.18l.5-2.09-.43.14-.07.22-.14-.14-1.15.5-.43-1.66-2.23-.65h-.43l.07,1.22.07.07h-.07l.07,1.01-1.08-.79-1.15.22-.5.65-2.45-.14.22-.36h-5.9l-.14.43-1.37.14h-4.11l-1.94-.36,3.17-.14-.86-1.8,2.23.58-1.37-1.51-2.66.07,1.87.36h-4.82l.36.22-1.87,2.02.43.58h-2.02l-1.15,1.66h-1.37l.65-1.44,1.15-.29.43-.65-.43-.22-.43.94-.36-.72v.22-.36l-.94-1.87.87.58v-1.22l.57-.36.22-1.08,2.23,1.15.5.29,1.87-2.02-2.02-1.08h-.07l-.43.07-2.45,1.58-.5.36.72.14-1.87,1.58-.79-2.02-1.29-.36Zm-.79-16.56v-1.44l2.23-.86-1.22,1.8-1.01.5Zm1.66-14.33l.65-.65-1.37-.86.29-.72h-.36l-.14.29v1.37l.94.58Zm.14-5.62l-.86.22.07.65,1.44-.43-.65-2.45-.43.36.43,1.66Zm-.36,34.78l1.87,2.16.14.07-1.8-2.09,1.94-1.3.58-2.59-.58-1.8h-.21l.58,1.66-.58,2.59-1.94,1.3Zm.86-21.31l.94-1.94-.43-.72-.14-1.01-.79,1.8.43,1.87Zm.72-21.6l.86,1.58-.43-1.15-.22-.43h-.21Zm1.8,31.82l-1.37.86.21.43,1.66-1.08-.43-.94-.86.29.79.43Zm-1.15-9.58l.43.07.43-.14-1.01-.14.14.22Zm1.22-18.14l1.73.14-.36-.94-1.73-.14.36.94Zm1.51,30.17l1.37.14.36-1.66-.07-.22-1.51-.86-.22,2.3-.07-.14.14.43Zm1.3-12.6l1.01-2.38-.5-.22h-.14l-1.08,2.59-.43.14,1.22.36.21-.43-.29-.07Zm-1.08,16.7l1.44.5-.14-.58.29.07-.58-1.3-1.01,1.3Zm.43-35.78v-.43l-.29-.22v.72l.29.72h-.29l-.07.86,1.65-1.01-1.01-.79-.29.14Zm-.07,2.52l.65,1.01,1.15.5,2.02-.22.21-.94-2.45.29-1.58-.65Zm1.44,2.95l-.29-.5-.72,2.45.29.43.72-2.38Zm-.07,3.38l.22.22.65-.22-.14-.5-.86.29.14.22Zm1.22-9.22l-.86,1.01,1.37.29v-.07l-1.22-.22.86-1.01-.07-.14-.07.14Zm.29,32.47l-1.15-.14.65,1.37.58-1.22.14-.58h-.07l-.14.58Zm-1.01-18.94l1.44-.43-1.44.36v.07Zm2.52-3.1l1.22.72.51-.07v.43l1.44,1.87.07-2.3,1.94-2.88.65.07.43-.22.86.07.79-1.3v-.22l1.08-.43,2.3-1.51.58-.14-.14-1.66-.94-2.52-.5,1.66-1.66-2.23.22-.36-1.22-.14-1.08,1.73,1.3,1.73.43-.72.14.29.29-.94.29.79,1.22.72.14,1.8-1.15-2.02.43,1.22-.36-.22.58,1.01-2.52-.14,1.94.14-2.3,1.51-1.08.43,1.01-.29-.65,1.3.14.22-.29.07-.21.29-.79-.07-1.08.29-.65-.36-1.8,2.59-1.3-1.87,2.81-.86-1.22-.5.22-1.66-1.08.29-1.15,1.8.07.58-.36-.14-.07.07v-.14l-.87-.43-.29.72-.43.14.65.36.43.22,1.15,1.73-.14-.5Zm-.36,11.45l-1.37-1.73,1.22-.36.5-1.22-.72-.58-.14-.07-.94,2.02-.14-.07v.29l1.37,1.73-.5,1.51.29.36h-.36l-.22.5,1.51-1.08-.07.58.65-1.87,1.37-2.52,1.58-.22,1.15-1.8-.14-2.3.5-.94.07-1.22-.58.65-.14,1.51-1.37-.58.36-.36-.36-.65-1.51-.36v.36l-.36-.43-.29-.07-.29-.58-.79-1.01.36-.07-.07-.22-1.01.14.22.65-.36-.22.5,1.3-.29.07.36-.07.07.22,1.44.29-1.01,1.08.07.14.65-.22.5.22,1.15-1.22.58,1.01-1.3.36.43.22.14,2.3-1.01,1.51.72.5-1.3.36-1.15,2.16Zm-.29-22.54l-1.01.22v.14l.94-.22.07-.14Zm-.94,15.12l-.07.22.79.29.36-.07v-.07l-1.08-.36Zm.58,21.67l-.22-.58-.14-.29.29.86-.5.21.65.07-.07-.29Zm.79-10.37l-1.22,2.02.29.65.58-.14,1.51-2.52.36-2.52-1.29.94-.22,1.58Zm1.66,4.82l-.43.79-.29,1.15v.07l-1.01,1.01.22.65.22-.07,1.37,2.45,1.01-.07.14-.5h.14l-.72-1.22-1.73-.65,1.58-1.58.65-2.23-1.22-2.16,2.23-.14-2.38.14-1.08.14,1.15,2.02v.22h.14Zm.5,7.7l.07-.14-.43-.5-1.08,1.37v.79l.14.22,1.29-1.73Zm.14-12.24l1.51,2.02v-.07l-1.44-1.94-.79-2.81h-.07l.79,2.81Zm-.65-2.88h-.07l1.73.86-.07-.07-1.58-.79Zm.36-20.02l-.07.43.14-.22-.07-.22Zm.79,18.07v.07l2.81.94-2.81-1.01Zm.07,21.17l.36.72.14-.58-.5-.14Zm2.16-2.88l.94-1.37-.22-.58.58.07.22-.43.07-.29-1.8-.29-.94.79.14.65.79,2.02.43-.72-.21.14Zm-.65-4.39l-.29,1.01h.29l1.08-.94-1.08-.07Zm1.37-16.06l-1.37.22,1.29,2.66.29-2.52-.22-.36Zm-.65,23.9l-.43-.07,1.87.94-.87-2.3-.21.65-.65.14-.14.22.43.43Zm-.36-37.22l.87.94.5-.07-.87-.94-.5.07Zm.07,19.51h-.07l1.66.65v-1.8l-1.58,1.15Zm1.01-27.22l-.86-.94h1.44l-.58.94Zm-.29,41.11l.21.65.36-.29.21-.58-.14-.36-.65.58Zm.21-16.85l-.07-.07v.07h.07Zm.94-.86l-.94.72.07.07.94-.72-.07-.07.14-.14-.5-1.08.36,1.22Zm-.29,4.46h.14l1.51-1.66-.07-.07h-.07l-1.51,1.73Zm.14-1.87h-.07l1.44.14-1.37-.14Zm.58,13.75l.21-.14-.07-.14-.43.22.29.07Zm3.17,2.59l-.58-2.02-.94-1.08-.07.14.79.94-1.08-.07-1.08,1.66.65,1.37,1.44-2.74.72,2.59.14-.29.14.21,2.3.58-.58-.86-1.87-.43Zm-2.66-21.24l-.14,1.3.43-.5-.29-.79Zm.36,9.94l1.37,1.15v1.73l-1.37-2.88Zm4.9,6.7h-1.87l-.5.72h2.02l.36-.72Zm-1.22-10.01h.07l.07-.58h-.07l-.07.58Zm1.87,12.67l-1.58.22-.29.58.07.07,1.8-.22,1.51-.29.21-.65-1.73.29Zm.65-40.25l-2.09.07-.07.29,1.8,2.16.36-2.52Zm-.86,6.19l-.65.14-.29,2.59.58-.07.36-2.66Zm0,42.26l-.86-1.22-.07.07.94,1.3h.29l1.22-2.02-.43.14-1.08,1.73Zm.58-21.02h-.07.07l-.94-1.01.94,1.01Zm-.43-2.88h-.22l-.14.14,1.08.07.87-1.51-.14-1.3-1.44,2.59Zm-.14-14.4h.58l.86-1.44-.07-.07-.5.07-.86,1.44Zm6.12,32.11l-4.82.58-.22.65,5.04-.58.36-2.3-.07-.22-.29,1.87Zm-1.58,3.82l.65-.14-.07-.5-.58.22-1.87-1.22.22.58,1.65,1.08Zm-.5-46.87l.07.36.22.07.65-.72-.94.29Zm1.73,13.03h-.14l1.3.65-1.01-1.8-.14,1.15Zm.94-6.55l1.3.29v-.43l-.79-.14-.57-.58-.22.22v.36l.29.29Zm-.21,14.62l.86,1.37,1.58-1.37h.07l1.22-1.44-.5-.36-.79,1.8h-.86l-.43.36-.22-.36h-.94Zm5.04,27l-1.08.79,1.3.94,2.38-.22.79-1.08-3.17.29,1.01-2.95,1.37-1.66v-.22l-1.37,1.58-1.22.72.22,1.94-1.66-1.15,1.22-.94-1.87-1.08-1.94.5.65.22.79,1.15.5-.07.36.22.29-.14-.07.29,1.51.86Zm-1.44-19.15v-.07h-1.58l.14-.07-.79-.14.07.5,2.16-.22Zm-.29-17.42l.43-.07-.07-.14-2.09.22h1.73Zm5.62-5.54l-.5-.86-.29.07-.86-.36-.22.86-2.23.58-.07-.14-.72.94.22.36-2.59-.65,1.8,1.73.07.22,1.08.5,1.3-.43-.07-.14-.29-.14.14-.22-.29-.86,2.23-.58.5-1.66,1.37,2.23.79-2.74-1.08.22-.29,1.08Zm-6.7,18.79h.72l.43-.65.36-1.08-1.51,1.73Zm.43-20.09l.58,1.01,1.44.36-.79-1.44-.07.07h-1.15Zm.58,23.11l-.5.72.65-.36-.07-.14-.07-.22Zm.36-26.78l-.36.65.43.79.86.65.07-.22-1.01-1.87Zm.43,21.02h-.29l.21.14.07-.14Zm3.67,9.22l-1.37.58h-1.44l.5-.72,2.3.14Zm-1.22-27.86l-.07.14.65-1.15-1.44-2.16-.36,1.37,1.22,1.8Zm-1.22,22.82l2.88.14-.57,1.58,1.44.07.65-1.8-1.22-2.16.79.14-.21-1.44.21.14v1.3l.58.07v3.96l-.58,2.74-2.3-.14-.43-2.88h.79l-2.02-1.73Z" fill="#fff"/>
  <path d="m427.97,44.93v-.14l-.14.21h.07l.58,2.09-1.73-.58-.36.5-1.22,2.23h-2.23l-.94,1.37-.86.36h-4.25l-1.37-.58-.58-1.37v-2.88l-.14-.29v-7.06l.14.07v-3.31l.65-.22,1.87-.07-.07-.5h-.65l-.65.22v-14.11l-1.15.14v-2.81l.79-.29-.65-.22-.94.36v-1.44l.14-1.37,1.15.07v-.86h-.36l-.07-2.02-.65-.29v-1.44l.58,1.01v-.14l1.15.65.86-1.15-.29.07.29-.58-1.73-.07v-5.69l.29-1.58v-.72l.22-.07.07-.43v.43l1.08-.43h.36v-.07l.14.07h3.17l.86-.5-.07.5h1.22l.86.65h.58v-.58l.07.07h6.98l-.79,1.08h.22l.58-.65.21.72h.72l-.58,1.51,2.23.22.5-1.3-1.87-.14,1.01-1.22h8.13v-.07l1.87.14h.36l2.95.43,1.51.29,1.44.36-.58.22-1.01-.36.07.22.07.07,1.37.5,1.22.58-.14-.5,1.01.29-.36,1.94,1.37.07.07-.43-1.08-1.08,1.15.72.14-.94,1.44,1.44v-.36l.36.65.94.94h-.36l.86.79,1.08-1.44.94,1.8-.87.94v.07l-.58.79h1.08l-.43-.79.5.79h1.3l-.22.58.36.86-.14-.36-.22-.5-.29.86.21.36-.21-.29v.07l.07.14.43,1.01-.58-1.01-.14.36.43.72h-.65l.5,1.58.57-1.58.14.36.36,1.44-.07-.14.36,1.66.22,1.44.07,1.51-.29,3.17-.36,1.51-1.08,2.81-.72,1.3-2.09.07-1.8.65.29-2.38-.22-2.45,2.16.72-.94-2.52-.14-.22-1.22-.43-2.09-.29-.14-.07-.36,1.44-.86-2.23-.65-.36-1.37.14.14-.58-.43-.14-.65-1.66,1.29-2.59.29-2.16-1.22.79-.22,1.37-2.59.36-1.01,1.44.22.29.29-.07.94-1.37-.14-.29,2.59-.36-1.15,2.23.14.14.29-.43,1.22,3.17-1.8-.43-.94,1.58-.22-1.51-.86-.07-.5.5.29,1.58,2.73.65,1.37-.14.14,1.58-2.3-.22,1.08,1.87-1.37.5.87.58,1.44-.5.36-1.37,1.08.58-1.01-1.66,1.37.14-.22-.5-.14-1.58,2.02,1.22,2.09.29.21,2.45-.29,2.38-.36-.07v.14l-.21.72,1.51,1.22,1.94.22-2.02-1.66,1.8-.65,2.09-.07-1.8,2.38.22.07-2.3,2.02-1.58.36.07.22h-2.52.72l-.14.79.14-.79,1.8,2.16-.43-.14.43.79h.14l1.29.58.58,1.73h.94l-.36.72.22-.07,1.15,2.23.87-.72-.5-1.51.72,1.3.14-.07.22.79.29.5h-.14l-.5,1.73,2.52,4.61.86,2.09-1.58,1.58h-1.3l-.07-.36-1.3.36.94-2.3-1.15-.14-.43,1.08-.72-1.15h-.29l-.21-.36h-.29l.22-.14-.72-1.08.5,1.22,1.3,1.94,1.66,2.52h-8.06l-.79-1.08h-.36l-.36-.14.65.07-1.15-1.51,2.81.86-1.01-1.94.87.14-.22-1.15-.43-.14.21.36-2.81-.07.65.86-.86-.07.36.36-2.66.5.79-.94h-.72l.43.14h-1.37l-1.87-.5-1.8-2.66-.43-1.08-.07.29-1.66-3.82,2.09-.58h.07l1.22.29v-.07l-.79-.22,2.02-2.16,1.22.43-.65-1.08-.21-.36-.36-3.1.94-.07-.22-1.58-1.87.07.36,3.1-2.02-.43-.72-1.08.22.58,1.37,2.09.22.14,1.08.29.36-.58,1.29,1.73-1.87-.72-.07.14.43.43-2.02,2.16-1.01-1.01-.36.5.5.5-1.15.29-.22.29-.07-.14-.72.14.5-.65-1.37-3.1.65-1.01-3.17-.22-.79-.94h-2.45l-.94-2.59-.86,1.3-1.73.5-1.87-.29,1.22-1.22.87-1.01,2.3.65-.14-.22-1.51-.43-.21-1.37-1.3-.86-.36.14.22,2.09-.87,1.01-.94.94.29.29,1.87.29-.65,1.08.07.65-.72.36-.29.5-2.38.07.43.79,2.16-.07,1.73-.86-.14-1.73,1.73-.5.94-1.37,1.01,2.66h2.45l-.79,2.23.36.94,1.15-.14,1.94.58v5.54l-.07.14.07.21h-.14l-.07.14-.14-.22-1.01-.07v1.8l-.14-1.87h-.22l.14-.22v-.14l.21-.5v.36l.22-.29-.14-.22-2.3-2.16-1.58-.86.86-1.94h.14l-.65-.22-2.38.29-.5,1.15.36.14v-.14l.14.29.72.36,2.3,2.16-1.8-.43.43.79-1.87-.29.07.14-.43.29-.07.5Zm-11.59-29.52l-.43-.94h-.43v.86l.87.07Zm2.3-.72l-.07-1.94,1.08.14-.79-2.09,2.02.43v-.36l-.72-.14.58-1.01-.86-.65-.72,1.15-.79-.94-.43.94.94-.29-.29,2.81-2.52-.5.5,1.08,1.22.22.07,1.94,1.29,1.73,1.3-.43-.58-.72-1.8-.58.72-.86-.07-.07-.07.14Zm.14,3.82l1.15,1.37-.07-.5-1.08-1.3-1.15.36.65.22-1.51,2.16,1.15-.14.43.36,1.51-.14-.79.94.22.22.79-1.3-.07-.36-2.74.29,1.51-2.16Zm-1.87-16.06l.94,1.51.43-.22-.65-1.08-.72-.22Zm3.96,31.61l-.14-1.15-.72-.22-1.51-.22-.79-1.08.14-2.59,2.16-1.66.65-.36v-.14l-1.01.5-2.16,1.66-.14,2.59.79,1.08.14.79h.21l2.38.79Zm-1.44-20.3l.58.07-.22-.58-1.01,1.22h.07l.58-.72Zm-.58,32.11l.65,1.44h.21l-.72-1.51-.14.07Zm1.01-21.82l2.95.58-.72-1.08-.14.14-1.66-.36-.43.72Zm3.02-16.2l.36-.43.14-.5,2.95-.5.29,3.38,2.95-.14.29-3.02.65,3.02,1.29-3.02,1.3,2.52-1.3,2.23-.65,2.52v.07l.65-2.45,2.81.72.22-.43-1.66-.43,1.29-2.23.65-1.44,1.8-.72.5-.86v-.07l-.58-.36-.79-.14-1.15-.14,1.51,1.15-2.66,1.08-.65,1.44-1.3-2.52v-.07l-1.29,3.02-.65-2.95v.07l-.29,3.02-2.95.14-.29-3.38.79-1.8-.07-.36-.79.22-.87,1.94-2.3.36-.22.65-.86-.86-.29.07-1.58,2.02,2.74-.79Zm-2.59,35.93l1.66-.86-1.8.94.87,1.37.21-.07-.94-1.37Zm1.01-15.48l-.5.29-.36.65.29-.14v-.22l.29.07,1.08-.58-.29-.07,2.3-1.94.72.29-.14-.22,1.15-.14.43-.58v-.43l-.07.22-.43-.72-.36-.14-.72.94-1.66-.58-.07-.14-.43.43.72,1.08h-.21l-1.73,1.44v.5Zm-.07,18.29l.87-2.38,2.74.86-.58,1.3.5-.14.14-.22.43-1.01h.29l.07-.07h-.86l-.36-1.22-2.45-.72-.79,2.23-.79,2.52.5.94.58-.94-.29-1.15Zm1.37-32.83l.58-1.51-.29-.94h.07l-1.94-.43.14.43.58.07.79,2.66,1.08-.29-.07-.22-.94.22Zm-.58-3.24l.94.79.72-.22.21-.5-.29-.5-1.58.43Zm2.16,19.22l-.07.72.79-1.37-2.66-.65-.14.79,2.09.5Zm-1.22,22.32l.94-1.37h2.23v.14l1.44-2.59,1.01-1.22,2.3.29.94,1.01.58,1.73.36-1.15-.51-1.37h.14l-1.01-1.8-1.94.79.94-1.58-.14-.14.29-.14.29-.5.22.29,1.66-.65-.79,1.01,1.95.5-1.3,2.23,1.44.22-.79,2.66-.29-.94v1.58l-.58,1.37-.5.22.29.36-1.95.22h-5.62l.94-.22.14-.72-.72.14h-2.81l.86-.36Zm-.58-47.95l.36.65,1.15.14,1.01-.29.07-.29-2.59-.22Zm.07-3.17h1.37l.14,1.15-1.51-1.15Zm4.39,19.58l-.94-2.66-.14-.14-1.66-.22.94.94.79-.43-.58.72.58.58-1.66.94v-.07l-.07.07v.43l-.65,1.87.58.29.22-.58-.14-.14h.21l.14-.43.29.58,2.09.43-.5,2.09.14.22.58-.22.29-1.44-.5.22.21-1.66-1.08-.22,1.58-2.09-.14-.22-.36-.36-.21,1.51Zm-2.81-4.32l1.15-2.66.79,2.66.94-3.31-.5.22-.43,1.51-.36-1.3-.43.14-.14-.36-.94.22-.14.29.65-.14-.72,1.66h.14l-.07,1.37.07.94.65-.36.07-.86h-.72Zm-.14,25.06l.22.79.21-1.22-.29-.5-.14.94Zm3.96-36.79l.07,1.51.36,1.15-.07-2.66,3.17.43-1.44,1.58h1.87l-.43-1.66-.43-.5h-1.44l.79-.86-.14-.14-.07.07-1.87-.29-.29,1.15-2.09-.79,1.8-.43-2.02.5,1.73.65-.29.07.22.07.07-.07.07.07.43.14Zm1.66,24.7h.58l-.07-.5-1.73-1.87,3.17-.65-1.66-1.73.5-2.59-.29-.07-.5,2.66-1.08-2.16.07-.07-.58-.07.58.72-.5.22.72,1.37-1.01.36-.79,1.22.14.79-.94.07-.22.36.79,1.08-.14.22,1.15.14.43,1.8,1.3.86.43-1.37-.36-.79Zm-3.24-4.1l.14-.07h-.07l-.07.07Zm2.23-4.32l-.5-.65.72,2.02.94-.43-1.15-.29,1.37-1.94,1.66.07-.65-1.15-.5-.07.29-.29-.21-.43-.58-.07-.14-.36-.94.07-1.94.43,1.01.14-.36,1.22,2.38-.22-1.37,1.94Zm-.87,6.05l1.73,1.87-2.52-.36.79-1.51Zm-.07-26.71l2.45.36,1.29,1.66-3.17-.43-.86-.22.29-1.37Zm1.37,24.34l1.66,1.73-3.17.65,1.51-2.38Zm-1.22,17.5l.14.58.29-.22-.21-.79-.22.43Zm.14,2.88v-.22l-.14.14.14.07Zm3.53-13.54l1.8-2.09h-.87l-1.44,1.58.22.5-.5.07,1.73,1.08,2.16.22.29-.07-1.58-.14-1.8-1.15Zm.14-14.11l.5.58.58.07-1.08-1.22v-.22l-.43.43.29.5.14-.14Zm-.36,34.56l.43.58.43-1.01-.72.07-.14.36Zm1.44-29.59l.86.22-.72-1.15-.14.94Zm7.34.43l1.15-1.37,2.3-1.15v-.58l-1.01-1.3-1.29.65.36-2.3-.36-.65h-.07l.07.29-.22-.29h-.58l-1.22-.43v.07l-2.23.07h-1.3l-1.58-.07-1.08,2.59v2.3l-.07.5,2.74.5-1.08,1.3,1.08,1.66,1.01-1.3h2.59l1.37-.36,1.29-.72.36.14.36-.29-.72-.29-1.87,1.01Zm-4.54,8.5l1.08,1.3-.65.14.65,3.1-.79.07v.07l1.58-.14-.65-3.24,1.01-.94-.07-.22-.14-.14.43-1.8-1.66-.43.58-.79-.65.07-.72,2.95Zm1.37-20.16l.79,2.38.65-1.01,2.66-.58-.07-.5-.21.29-.94-1.73.14.43-1.15-.22-.43.65v.07l-.07.07-1.15-.94-.43.94.22.14Zm.86,2.23l-.79-2.38,1.44,1.37-.65,1.01Zm.5,14.9l.58.14.07-.07-.14-.14-.07.07-.07-.22-.58-.72.43-.72-.07-.5.65-1.22-.94-.79-1.08,2.02.29,2.16h-.14l.87,1.01.21-1.01Zm1.37-19.37l-.22.29,1.51.36v-.22l-.65-.14-.29-.72-.5.29.14.14Zm.07-3.38l-.14.22.65.58.58-2.23-.36-.29-.72,1.73Zm.94,20.59l-.72,1.51.94,2.66.58-2.09-.79-2.09Zm-.36,18.07l-.14,1.15,1.15.72.07-.07-.07-.22.21-1.51h-.14l-.79-2.59-.29,2.52Zm1.65-38.3l.22,1.15.58.14-.36-1.8v.07l-1.15-1.08.72,1.51Zm.87,36.07l.29-.07-1.22-.29v.14l.94.22Zm.79-28.08l1.3.29v-.22l-.14-.07.22-.29.07-.72-.72,1.01-.79-2.09-.94.22-.29,2.45,1.29-.58Zm.87-8.35l.14-.07-2.02-.79-.07.14,1.87.79.07-.07Zm-1.8,20.88l-.14.72,1.3-.14-.36-.86-.87.07.07.22Zm1.37-8.71l-.07-.07-.5-.86-.79.07.86,1.01.58-.07-.07-.07Zm-1.08-7.85l.07.14v-.14h-.07Zm2.16-4.9l.79.07-.07-.07-.5-.07-.07-1.22-.36-.58-1.44-.14,1.22,2.52.29-.07.14-.43Zm-1.58,5.9l.07.07.72-1.01.72.79h.86l.65-.79h-1.15l.65-1.37-.65-.58,1.15-.72v-.07l-.36-.5.94-1.08-.22.07-.94,1.08-.5.29-.36.94-.94,1.94-.65.94Zm2.45,33.41l.65-2.74.65-.21v-.29l-2.02,1.3-.36.22-.43,2.02,1.22.22,1.73-.86-.65,2.74,1.87-.94.79,1.37,1.37.07.29-.14-.65-1.15-.21-.5-.29-.43h.07l-.36-.72-.14.07.07-.22-.14-.22-.72-.29-1.3.36.79-.5-.36-.07-1.87.94Zm-.07-12.31l2.16-2.02.79,2.09-.58,1.37.72.14.72.07h1.01-.14l-.72-.07.43-1.15-.43-1.73.14-.58-.79.29-.22.86-.79-2.09.72-.29-.79-.58-.07.07v-.07l-.29-.22-2.3-.14.07-1.01-.65.22.07.22-.14,1.15.29.5,2.38.14-1.8,1.73.22,1.08Zm.58-17.42l.29-.22-1.08-.22-.36.14,1.15.29Zm-.79-1.94l.5-.65-.07-.29-.51.72.07.22Zm1.73-1.58l-.07,2.88.07.07.29-.14v-2.81l2.09-1.58h.14l.22-.86-1.3.07.07-1.15-.58-.07-.14.07-.07,1.44.36.5-.43.07.36.36-1.87.07v.79h.29l-.72.94,1.29-.65Zm1.51,26.28l-.29-1.08-.87,2.3,1.44-.43.36-.94-.65.14Zm.5-2.16l-.79-1.15-.22.36.14.72,1.87.58.07-.72-.79-.94-.29,1.15Zm1.37,5.62l1.15-1.8.14,2.09,1.37-2.59-2.02.07-1.87.65-1.08,1.73,2.3-.14Zm.29-13.9v-.07l-.14-.07-1.22.94-.14.36.72,1.22.14-.43,1.73.29-.29-.5.29-.22-.94-.14-.14-1.37Zm-1.22,16.42l.07-.14-.36-.21.14.29.14.07Zm.07-38.45l.43,1.87.79.07-.36-1.66-.87-.29Zm2.88,37.73l1.15-1.73-1.37.5-.43.58.07.14-.14.07-1.15,1.66.5.22v-.36l.07.43.22.07.72,1.08.72-.22h2.81l1.44.36.43.79v-.07l-1.22-2.3-1.44-.36.29-.86h-2.66Zm-1.08-31.32h-.36l.36.79h.65l-.65-.79Zm-.36,4.18l1.15.65.72-.14-.86-2.16-.36-.22-.65,1.87Zm1.15,31.25l-.43-.65-.14.79.57-.14Zm-.21-11.09l.07-.07-.22-.07.14.14Zm.29-4.9l.5,2.02,1.22-1.8-1.73-.22Zm1.3-17.14l.36.58-.07-1.15-.86-.14.58.72Zm2.81,7.06l1.22,2.09-.21-1.73-.29-.65-.86-1.58-2.23-.65.86,2.09,1.51.43Zm-2.3-12.38l.14,2.23.21.65.72.14-.22-.65-.79-1.58-.07-1.22v-.07.5Zm.72,7.34l.07.22,1.3.07.07.22.36-.43.58,2.09-.43-.07.14.29,2.02.86-.79-2.45.14-.58-2.09-.86-.58-2.09-1.44,1.66.65,1.08Zm.86,25.2l-.29-.94-.57,1.08.43,1.44.43-1.58Zm.86,6.84h.36-.36Zm2.66,6.05l.07.36h-1.37l1.29-.36Z" fill="#fff"/>
</svg>